<?xml version="1.0" encoding="UTF-8" standalone="no"?>
<!-- Created with Inkscape (http://www.inkscape.org/) -->

<svg
   xmlns:dc="http://purl.org/dc/elements/1.1/"
   xmlns:cc="http://creativecommons.org/ns#"
   xmlns:rdf="http://www.w3.org/1999/02/22-rdf-syntax-ns#"
   xmlns:svg="http://www.w3.org/2000/svg"
   xmlns="http://www.w3.org/2000/svg"
   xmlns:sodipodi="http://sodipodi.sourceforge.net/DTD/sodipodi-0.dtd"
   xmlns:inkscape="http://www.inkscape.org/namespaces/inkscape"
   width="510mm"
   height="135mm"
   viewBox="0 0 510.00003 135"
   version="1.1"
   id="svg8"
   inkscape:version="0.92.4 5da689c313, 2019-01-14"
   sodipodi:docname="logo-poziome-nowe.svg">
  <defs
     id="defs2">
    <filter
       style="color-interpolation-filters:sRGB"
       inkscape:label="Drop Shadow"
       id="filter5020">
      <feFlood
         flood-opacity="0.498039"
         flood-color="rgb(0,0,0)"
         result="flood"
         id="feFlood5010" />
      <feComposite
         in="flood"
         in2="SourceGraphic"
         operator="in"
         result="composite1"
         id="feComposite5012" />
      <feGaussianBlur
         in="composite1"
         stdDeviation="0"
         result="blur"
         id="feGaussianBlur5014" />
      <feOffset
         dx="3"
         dy="3"
         result="offset"
         id="feOffset5016" />
      <feComposite
         in="SourceGraphic"
         in2="offset"
         operator="over"
         result="composite2"
         id="feComposite5018" />
    </filter>
  </defs>
  <sodipodi:namedview
     id="base"
     pagecolor="#ffffff"
     bordercolor="#666666"
     borderopacity="1.0"
     inkscape:pageopacity="0.0"
     inkscape:pageshadow="2"
     inkscape:zoom="0.5"
     inkscape:cx="918.01715"
     inkscape:cy="196.06727"
     inkscape:document-units="mm"
     inkscape:current-layer="layer1"
     showgrid="false"
     inkscape:window-width="1920"
     inkscape:window-height="1016"
     inkscape:window-x="1600"
     inkscape:window-y="387"
     inkscape:window-maximized="1" />
  <metadata
     id="metadata5">
    <rdf:RDF>
      <cc:Work
         rdf:about="">
        <dc:format>image/svg+xml</dc:format>
        <dc:type
           rdf:resource="http://purl.org/dc/dcmitype/StillImage" />
        <dc:title></dc:title>
      </cc:Work>
    </rdf:RDF>
  </metadata>
  <g
     inkscape:label="Layer 1"
     inkscape:groupmode="layer"
     id="layer1"
     transform="translate(0,-162)">
    <path
       style="fill:#000000;fill-opacity:1;stroke:#000000;stroke-width:0.08680738;stroke-miterlimit:4;stroke-dasharray:none;stroke-opacity:1"
       d=""
       id="path940"
       inkscape:connector-curvature="0" />
    <g
       id="g1726"
       transform="matrix(0.8316078,0,0,0.83098154,-59.541073,72.778253)">
      <path
         sodipodi:nodetypes="ccccccccccccccccsccccccccccccccccccccccccccccccccccccccccccccscscccccccccc"
         inkscape:connector-curvature="0"
         id="path967"
         d="m 150.04439,223.09256 0.98114,3.85325 0.48154,3.62822 0.44218,4.18688 1.0992,4.7866 2.00008,3.37161 1.71867,1.8933 1.80163,2.38863 1.41666,2.06781 4.96101,3.11676 3.85229,2.34934 5.55898,3.90213 7.21179,5.22736 8.30522,2.01582 12.21323,0.54103 8.54487,-1.61152 c 0,0 7.07009,-5.51955 7.43627,-6.29292 0.36618,-0.77336 3.03204,-4.01395 3.03204,-4.01395 l 3.74125,-6.36945 3.63109,-9.06548 3.25149,-16.70277 1.5562,-10.85613 2.95946,-3.90539 1.77262,-5.22659 0.26016,-1.56678 0.95459,-0.27467 0.87482,-3.07183 1.43979,-1.50625 0.10656,-3.03557 -4.37727,-1.87664 -3.86064,-1.95042 -5.83156,-1.04671 -6.48733,0.0797 -1.91766,0.30846 -4.99488,-0.56502 -4.67578,-0.31753 -6.94265,-0.32144 -6.53738,0.15765 -2.56269,-0.0989 -7.42496,-1.00924 -5.35611,0.34587 -6.35549,1.45655 -5.91996,1.45042 -0.52993,0.22261 -20.94777,1.75613 -2.98114,0.12332 -3.98413,0.60362 -1.6515,1.0223 -0.18632,0.23833 -5.21577,0.11842 -2.46214,1.6998 -0.61827,0.87472 -0.6195,1.89464 -0.4465,1.80512 -0.27712,2.00778 -0.22751,1.7047 0.0369,1.18083 0.33632,1.52263 0.93034,1.67328 c 0,0 0.71621,1.38412 0.83416,1.57467 0.11799,0.19055 1.4409,2.08647 1.4409,2.08647 0,0 0.99023,1.92615 1.01201,2.0181 0.0218,0.0919 1.11181,1.82452 1.11362,2.13969 0.002,0.31517 0.26188,1.51598 0.29455,1.65391 0.0327,0.13792 0.63573,1.86443 0.63573,1.86443 l 2.6979,4.21648 1.83349,2.30909 3.13835,1.97581 1.72042,0.80643 1.28489,-0.11006 2.21167,-0.91218 c 0,0 0.71688,-0.97091 0.80459,-1.11306 0.0877,-0.14215 0.70359,-1.74461 0.70359,-1.74461 z"
         style="fill:none;stroke:#000000;stroke-width:1.20294297;stroke-linecap:butt;stroke-linejoin:miter;stroke-miterlimit:4;stroke-dasharray:none;stroke-opacity:1" />
      <path
         inkscape:connector-curvature="0"
         id="path969"
         d="m 233.41131,189.09494 0.52583,-4.03305 0.34911,-1.80633 c 0,0 0.15431,-1.80875 0.17307,-1.93458 0.0187,-0.12581 0.11256,-1.67749 0.13918,-1.97511 0.0266,-0.29763 0.32008,-2.23644 0.3455,-2.43668 0.0254,-0.20024 2.91724,-3.28049 3.0507,-3.58676 0.13347,-0.30627 3.31094,-4.28601 3.67369,-4.7839 0.36275,-0.4979 0.68449,-2.90871 0.85218,-3.36041 0.1677,-0.45171 2.038,-6.18186 1.97642,-6.44194 -0.0616,-0.26006 -0.51481,-6.81328 -0.6072,-7.2034 -0.0924,-0.39011 -2.23109,-3.04225 -2.3577,-3.28693 -0.12659,-0.24468 -2.16949,-2.78217 -2.57157,-3.03028 -0.40208,-0.24811 -7.03548,-7.67241 -7.03548,-7.67241 0,0 -4.72399,-4.58053 -5.03026,-4.714 -0.30628,-0.13346 -3.02503,-1.75559 -3.24746,-2.11491 -0.22242,-0.35931 -1.85293,-3.47513 -2.18656,-4.01411 -0.33363,-0.53898 -1.38416,-2.07551 -1.98983,-2.89339 -0.60568,-0.81788 -3.09173,-2.90711 -3.84627,-3.48374 -0.75454,-0.57663 -3.6615,-2.70351 -4.46909,-2.92426 -0.8076,-0.22074 -5.01837,-1.76419 -5.76094,-2.00034 -0.74258,-0.23614 -5.44614,-1.25091 -6.91932,-1.3827 -1.47319,-0.1318 -3.60853,-0.4501 -4.85585,-0.49805 -1.24733,-0.0479 -7.0973,-0.10457 -7.72867,-0.16106 -0.63136,-0.0565 -4.5838,-0.21914 -5.52144,-0.40909 -0.93764,-0.18994 -10.13262,-1.03374 -10.48851,-1.08679 -0.35589,-0.0531 -8.4319,0.3488 -9.61765,0.56093 -1.18573,0.21215 -6.01255,1.28652 -7.05286,1.53288 -1.0403,0.24635 -5.00989,1.46106 -6.16484,1.80323 -1.15496,0.34215 -7.04608,3.59122 -7.79895,4.1815 -0.75285,0.59028 -3.04743,3.94895 -3.04743,3.94895 l -2.00538,2.26019 -1.99516,4.04308 c 0,0 -1.84287,3.52636 -2.15943,4.21931 -0.31655,0.69295 -2.23472,5.06112 -2.23472,5.06112 l -3.44274,5.75919 c 0,0 -1.51609,4.61628 -1.71458,4.93795 -0.19849,0.32167 -1.38606,4.58549 -1.38606,4.58549 l -1.61366,5.94403 c 0,0 0.99747,1.89242 1.18567,2.39717 0.18817,0.50475 1.82039,4.78748 2.02055,5.63272 0.20017,0.84526 1.93677,3.24929 2.12154,4.02952 0.18477,0.78023 0.98718,2.71883 0.86225,3.64106 -0.12492,0.92224 -0.0531,2.9652 0.0974,3.89086 0.15057,0.92567 0.46192,1.95057 0.62788,2.94125 0.16596,0.99069 0.82452,6.67129 0.82452,6.67129 l 1.22843,2.8677 1.83054,2.54906 v 0"
         style="fill:none;stroke:#000000;stroke-width:1.20294297;stroke-linecap:butt;stroke-linejoin:miter;stroke-miterlimit:4;stroke-dasharray:none;stroke-opacity:1" />
      <path
         inkscape:connector-curvature="0"
         id="path971"
         d="m 147.38817,190.38466 c 0,0 0.33654,-6.78011 0.50837,-7.69478 0.17183,-0.91465 2.18763,-6.3445 2.19733,-7.12366 0.01,-0.77915 1.11322,-4.73057 1.30682,-5.55328 0.19361,-0.8227 0.9511,-4.59506 1.17132,-5.7154 0.22024,-1.12033 2.71272,-6.17753 2.87969,-6.70261 0.16698,-0.52508 0.84211,-1.36471 0.84211,-1.36471 0,0 2.18267,-2.26482 2.87474,-2.62292 0.69206,-0.3581 6.96164,-1.35727 7.88115,-1.57502 0.91951,-0.21775 8.95309,-1.14913 9.32089,-1.23623 0.36781,-0.0871 12.18829,-1.42972 12.18829,-1.42972 0,0 5.91386,-0.041 6.96887,-0.0966 1.05501,-0.0556 7.3439,1.077 7.8472,1.15203 0.5033,0.075 6.29125,2.78288 7.38496,3.30074 1.09372,0.51785 3.85462,1.51487 4.94348,2.4223 1.08885,0.90744 3.71426,1.74233 4.46194,2.43923 0.74767,0.69691 4.26834,3.26194 4.78856,3.8185 0.52023,0.55656 3.75048,4.35565 4.22716,4.7283 0.47668,0.37265 1.94057,2.45368 2.55275,2.98846 0.61218,0.53478 2.92054,2.90136 3.09959,3.24738 0.17906,0.34603 0.66533,3.62964 0.66533,3.62964"
         style="fill:none;stroke:#000000;stroke-width:0.26458332px;stroke-linecap:butt;stroke-linejoin:miter;stroke-opacity:1" />
      <path
         inkscape:connector-curvature="0"
         id="path973"
         d="m 140.38654,194.03344 4.63867,-0.71007 1.53412,0.12225 4.3446,1.73871 1.5837,0.74169 4.60482,-1.67312 4.02892,-1.43964 3.94904,-0.54674 1.74582,0.60619 1.36111,0.21177 1.3453,2.40043 0.82869,2.47421 0.47668,0.37265 0.11624,2.54211 c 0,0 0.39347,2.24144 0.43197,2.404 0.0385,0.16254 0.65438,2.7633 0.72538,2.91816 0.071,0.15485 0.91278,1.53481 1.03168,1.74698 0.1189,0.21217 1.10786,1.48862 1.22676,1.70079 0.11889,0.21217 1.23788,1.45782 1.47741,1.74442 0.23954,0.2866 1.09759,1.01039 1.39616,1.11134 0.29857,0.10096 2.13447,1.03951 2.50575,1.15759 0.37129,0.11806 1.97108,0.49453 2.15673,0.55356 0.18564,0.059 1.99931,0.17887 2.21747,0.23021 0.21816,0.0513 2.64181,-0.008 3.03193,-0.10002 0.39011,-0.0924 3.17225,-0.95722 3.43233,-1.01881 0.26008,-0.0616 4.84483,-3.17294 4.84483,-3.17294 l 2.87632,-3.22177 c 0,0 0.58353,-2.61014 0.73239,-2.85138 0.14887,-0.24126 1.11482,-2.97629 1.019,-3.09093 -0.0958,-0.11464 0.36881,-2.93695 0.36283,-3.1072 -0.006,-0.17024 0.31485,-0.55521 0.31485,-0.55521 l 1.08653,-1.35595 0.16171,-0.62196 c 0,0 1.10533,-0.26175 1.33289,-0.31564 0.22757,-0.0539 2.45788,-0.20439 2.82147,-0.11884 0.36358,0.0856 4.47687,0.34747 4.47687,0.34747 l 0.47049,1.26189 0.58685,1.02834 c 0,0 0.008,1.33716 -0.0531,1.66054 -0.0608,0.32338 -0.0523,3.54865 -0.0523,3.54865 l 0.52181,2.34838 0.92213,4.03889 1.6408,2.28938 c 0,0 1.11127,1.21315 1.30462,1.30469 0.19334,0.0915 0.99407,0.86324 0.99407,0.86324 l 2.29613,1.7222 4.87469,0.2876 3.83612,-0.90844 5.33139,-3.19403 3.97854,-6.49521"
         style="fill:none;stroke:#000000;stroke-width:0.60147148;stroke-linecap:butt;stroke-linejoin:miter;stroke-miterlimit:4;stroke-dasharray:none;stroke-opacity:1" />
      <path
         inkscape:connector-curvature="0"
         id="path975"
         d="m 170.82801,198.33177 c 0,0 0.49961,-0.91328 0.72291,-1.27515 0.22329,-0.36188 0.24388,-2.01471 0.24388,-2.01471 l 1.08143,-2.2474 c 0,0 1.67685,-1.90774 1.8086,-2.07627 0.13175,-0.16853 2.54519,-2.01037 2.83008,-2.11217 0.28489,-0.10179 2.05752,-0.59024 2.28509,-0.64413 0.22756,-0.0539 2.30475,-0.27113 2.72737,-0.37122 0.42262,-0.10008 3.15255,-0.0256 3.42033,-0.0546 0.26777,-0.0291 2.10797,-0.0872 2.35863,-0.0436 0.25067,0.0437 2.05664,0.13096 2.23459,0.15749 0.17794,0.0265 2.42278,0.66223 2.68114,0.73838 0.25836,0.0762 2.12505,1.14473 2.32609,1.26879 0.20105,0.12405 1.47143,1.57417 1.77599,1.84538 0.30455,0.27121 1.56724,1.68882 1.63055,1.81116 0.0633,0.12234 0.7468,1.84877 0.7468,1.84877 l 0.66379,2.65809"
         style="fill:none;stroke:#000000;stroke-width:0.26458332px;stroke-linecap:butt;stroke-linejoin:miter;stroke-opacity:1" />
      <path
         inkscape:connector-curvature="0"
         id="path977"
         d="m 211.66485,197.54798 0.9086,-1.38248 c 0,0 1.00871,-2.26451 1.14817,-2.40052 0.13944,-0.13603 2.15164,-1.64252 2.38093,-1.83415 0.22928,-0.19163 2.09604,-1.73235 2.38093,-1.83414 0.28489,-0.10179 2.71368,-0.57399 3.03878,-0.65098 0.3251,-0.077 2.76586,-0.20866 3.26121,-0.29163 0.49534,-0.083 3.80701,0.12843 4.26043,0.15839 0.45342,0.0299 4.1355,1.08063 4.1355,1.08063 0,0 1.42523,1.37911 1.59377,1.51087 0.16853,0.13175 1.56724,1.68882 1.68615,1.90099 0.1189,0.21217 0.90422,2.2235 0.90422,2.2235 l -0.0552,3.83296 0.0677,1.0036 0.89741,-0.0547"
         style="fill:none;stroke:#000000;stroke-width:0.26458332px;stroke-linecap:butt;stroke-linejoin:miter;stroke-opacity:1" />
      <path
         inkscape:connector-curvature="0"
         id="path979"
         d="m 195.3107,187.41156 1.54255,1.28553 c 0,0 1.0211,0.82638 1.10519,0.97641 0.084,0.15004 1.58308,1.25166 1.58308,1.25166 l 1.12999,1.28612 c 0,0 0.3702,0.64064 0.39197,0.73259 0.0218,0.092 0.21838,0.40955 0.21838,0.40955 0,0 2.52681,0.009 2.71071,-0.035 0.1839,-0.0436 1.36897,0.04 1.71258,0.0557 0.34359,0.0157 3.9732,0.27294 4.20187,0.3159 0.22866,0.043 1.20805,0.0781 1.20805,0.0781 0,0 0.60313,-0.11858 0.72474,-0.22013 0.12159,-0.10166 0.8058,-1.21046 0.8058,-1.21046 0,0 2.01751,-1.42457 2.13911,-1.52619 0.12158,-0.10166 2.00418,-1.27576 2.11368,-1.32596 0.1095,-0.0502 0.75557,-0.39742 0.84209,-0.44218 0.0865,-0.0448 1.43428,-0.60676 1.43428,-0.60676"
         style="fill:none;stroke:#000000;stroke-width:0.26458332px;stroke-linecap:butt;stroke-linejoin:miter;stroke-opacity:1" />
      <path
         inkscape:connector-curvature="0"
         id="path981"
         d="m 150.04439,223.09256 -3.24795,-14.44023"
         style="fill:none;stroke:#000000;stroke-width:1.20294297;stroke-linecap:butt;stroke-linejoin:miter;stroke-miterlimit:4;stroke-dasharray:none;stroke-opacity:1" />
      <path
         inkscape:connector-curvature="0"
         id="path983"
         d="m 145.32646,216.07297 -4.22792,-0.16608 c 0,0 -1.75545,-2.19358 -1.87862,-2.71373 -0.12318,-0.52016 -0.53716,-3.71807 -0.4995,-4.13897 0.0377,-0.42091 1.18757,-4.26382 1.18757,-4.26382"
         style="fill:none;stroke:#000000;stroke-width:0.60147148;stroke-linecap:butt;stroke-linejoin:miter;stroke-miterlimit:4;stroke-dasharray:none;stroke-opacity:1" />
      <path
         inkscape:connector-curvature="0"
         id="path985"
         d="m 149.59737,208.88169 -1.64386,-15.06043"
         style="fill:none;stroke:#000000;stroke-width:0.26458332px;stroke-linecap:butt;stroke-linejoin:miter;stroke-opacity:1" />
      <path
         inkscape:connector-curvature="0"
         id="path987"
         d="m 147.38817,190.38466 v 0 0 l -0.0153,1.09356"
         style="fill:none;stroke:#000000;stroke-width:0.26458332px;stroke-linecap:butt;stroke-linejoin:miter;stroke-opacity:1" />
      <path
         sodipodi:nodetypes="ccscccscccsccccccccssscccccccssccscccccccccsccc"
         inkscape:connector-curvature="0"
         id="path989"
         d="m 199.4463,203.94341 -0.32091,2.99427 c 0,0 0.047,2.08317 0.0778,2.2132 0.0308,0.13005 -0.69985,1.53905 -0.776,1.79741 -0.0761,0.25836 -0.62542,1.41841 -0.84701,1.64255 -0.22158,0.22414 -1.13443,1.29862 -1.20117,1.45177 -0.0667,0.15313 -0.49965,1.07963 -0.67161,1.22335 -0.17196,0.14373 -0.65533,0.56718 -0.99156,0.88713 -0.33622,0.31996 -1.31238,1.27211 -1.31238,1.27211 0,0 -0.52275,0.9821 -0.6066,1.20797 -0.0838,0.22584 -0.25153,0.67754 -0.28748,0.96072 -0.0359,0.28317 0.0367,1.60494 0.0427,1.77518 0.006,0.17025 0.26431,1.55104 0.26431,1.55104 l 1.38558,1.53347 2.19467,1.37388 1.07557,0.13372 c 0,0 0.92252,2e-5 1.08889,-0.0151 0.16635,-0.0151 0.56138,0.0127 0.75071,-0.008 0.18935,-0.0206 0.69932,-0.02 0.8197,-0.0242 0.12037,-0.004 0.37324,-0.0641 0.64909,-0.12946 0.27585,-0.0653 0.67208,-0.13491 0.87898,-0.1839 l 0.52872,-0.12521 c 0.13792,-0.0327 0.3436,0.0157 0.50996,6.2e-4 0.16634,-0.0151 0.13248,-0.0556 0.37747,0.0563 0.24499,0.11192 0.25044,0.13491 0.54807,0.16153 0.29763,0.0266 0.57227,0.0587 0.97273,0.10953 0.40047,0.0508 0.66846,0.1573 0.89168,0.17727 0.22323,0.02 0.25044,0.13491 0.53173,0.0926 0.28129,-0.0424 0.39503,0.0278 0.76827,-0.0363 0.37325,-0.0641 0.65456,-0.10639 0.90742,-0.16628 0.25287,-0.0599 0.52751,-0.0278 0.72896,-0.0998 0.20145,-0.072 0.22988,-0.0544 0.41136,0.0968 0.18147,0.15124 0.62549,0.38596 0.62549,0.38596 0,0 1.25948,0.0902 1.37442,0.063 0.11494,-0.0272 1.02598,-0.48574 1.23953,-0.60914 0.21354,-0.12343 0.84631,-0.3218 1.08829,-0.42765 0.24199,-0.10582 0.77191,-0.32846 0.77191,-0.32846 l 2.22685,-2.59088 c 0,0 0.39868,-1.18688 0.39989,-1.28428 0.001,-0.0974 -0.23829,-2.03138 -0.23829,-2.03138 0,0 -0.39257,-1.14515 -0.43733,-1.23166 -0.0447,-0.0865 -0.43795,-0.7217 -0.58434,-0.9298 -0.14639,-0.2081 -0.68052,-1.02842 -0.7876,-1.17299 -0.1071,-0.14458 -0.51779,-0.75135 -0.68596,-1.05141 -0.16817,-0.30005 -0.59703,-1.29095 -0.73011,-1.64786 -0.13303,-0.35693 -0.47,-1.36959 -0.61941,-1.79547 -0.14936,-0.42589 -0.33632,-1.52262 -0.41253,-1.84445"
         style="fill:none;stroke:#000000;stroke-width:1.20294297;stroke-linecap:butt;stroke-linejoin:miter;stroke-miterlimit:4;stroke-dasharray:none;stroke-opacity:1" />
      <path
         inkscape:connector-curvature="0"
         id="path991"
         d="m 164.63857,189.21279 c 0,0 2.89289,-3.16132 3.07679,-3.20487 0.18391,-0.0436 6.43296,-2.1546 6.61686,-2.19815 0.1839,-0.0435 2.8868,-1.7518 3.21709,-1.58726 0.3303,0.16456 3.89337,0.2433 3.89337,0.2433 0,0 3.39248,-0.0265 3.98773,0.0267 0.59526,0.0533 3.57154,0.31951 4.00467,0.50826 0.43313,0.18876 1.91642,0.71146 2.23097,1.21962 0.31455,0.50816 1.79533,3.07066 1.79533,3.07066"
         style="fill:none;stroke:#000000;stroke-width:0.26458332px;stroke-linecap:butt;stroke-linejoin:miter;stroke-opacity:1" />
      <path
         inkscape:connector-curvature="0"
         id="path995"
         d="m 164.63857,189.21279 4.64713,-0.4693 6.98827,-1.65491 4.40634,-0.46087"
         style="fill:none;stroke:#000000;stroke-width:0.26458332px;stroke-linecap:butt;stroke-linejoin:miter;stroke-opacity:1" />
      <path
         inkscape:connector-curvature="0"
         id="path999"
         d="m 212.03123,190.25135 2.08408,-2.07283"
         style="fill:none;stroke:#000000;stroke-width:0.26458332px;stroke-linecap:butt;stroke-linejoin:miter;stroke-opacity:1" />
      <path
         inkscape:connector-curvature="0"
         id="path1001"
         d="m 215.18556,187.47873 4.287,-1.32419 c 0,0 2.96093,-0.25486 3.43915,-0.26512 0.47824,-0.0103 2.76416,-0.0709 3.03193,-0.10001 0.26778,-0.0291 2.14819,-0.0624 2.5691,-0.0247 0.42091,0.0376 1.68962,0.32086 2.013,0.38162 0.32338,0.0607 2.12417,1.86592 2.12417,1.86592 l 0.7614,1.08272"
         style="fill:none;stroke:#000000;stroke-width:0.26458332px;stroke-linecap:butt;stroke-linejoin:miter;stroke-opacity:1" />
      <path
         inkscape:connector-curvature="0"
         id="path1003"
         d="m 212.03123,190.25135 0.61438,2.08614"
         style="fill:none;stroke:#000000;stroke-width:0.26458332px;stroke-linecap:butt;stroke-linejoin:miter;stroke-opacity:1" />
      <path
         inkscape:connector-curvature="0"
         id="path1015"
         d="m 138.12407,193.50099 4.35579,3.88245 2.40556,4.64891"
         style="fill:none;stroke:#000000;stroke-width:0.26458332px;stroke-linecap:butt;stroke-linejoin:miter;stroke-opacity:1" />
      <path
         inkscape:connector-curvature="0"
         id="path1017"
         d="m 190.66635,196.40138 -3.35125,-3.2849 c 0,0 -2.9315,-1.10227 -3.58119,-1.3854 -0.64969,-0.28313 -6.36999,0.78019 -6.36999,0.78019 l -3.10581,1.85222 -1.36961,1.39252 2.64836,1.75197 c 0,0 2.53345,0.85666 2.73912,0.90507 0.20568,0.0484 4.01436,-0.27089 4.312,-0.24427 0.29763,0.0266 5.05487,-1.00284 5.05487,-1.00284 z"
         style="fill:none;stroke:#000000;stroke-width:0.60147148;stroke-linecap:butt;stroke-linejoin:miter;stroke-miterlimit:4;stroke-dasharray:none;stroke-opacity:1" />
      <path
         inkscape:connector-curvature="0"
         id="path1019"
         d="m 215.96908,192.23709 0.19506,-0.0462 c 0,0 0.96243,0.14975 1.09248,0.11895 0.13004,-0.0308 3.85404,0.90695 4.33825,1.06695 0.48422,0.15999 2.76838,1.54171 2.76838,1.54171 l -0.87523,1.95823 -4.00039,1.08468 -5.17497,-0.25082 -1.7649,-0.7837 0.0257,-0.7614"
         style="fill:none;stroke:#000000;stroke-width:0.60147148;stroke-linecap:butt;stroke-linejoin:miter;stroke-miterlimit:4;stroke-dasharray:none;stroke-opacity:1" />
      <path
         inkscape:connector-curvature="0"
         id="path1021"
         d="m 182.33304,192.13433 0.32159,2.80779 c 0,0 -1.78978,1.86581 -1.91982,1.89661 -0.13003,0.0308 -2.64269,0.72881 -2.64269,0.72881 l -2.47666,-0.8898 -1.184,-1.23025 -0.17336,-1.08399"
         style="fill:none;stroke:#000000;stroke-width:0.26458332px;stroke-linecap:butt;stroke-linejoin:miter;stroke-opacity:1" />
      <path
         inkscape:connector-curvature="0"
         id="path1023"
         d="m 182.33304,192.13433 -0.0667,-0.34704"
         style="fill:none;stroke:#000000;stroke-width:0.26458332px;stroke-linecap:butt;stroke-linejoin:miter;stroke-opacity:1" />
      <path
         inkscape:connector-curvature="0"
         id="path1025"
         d="m 219.27945,192.87797 0.44698,0.87263 -0.0685,0.9432 c 0,0 -0.28749,0.96073 -0.3448,1.00863 -0.0573,0.0479 -0.72465,0.92692 -0.78197,0.97483 -0.0573,0.0479 -0.49193,0.45983 -0.6994,0.52612 -0.20745,0.0663 -0.76269,0.40378 -0.76269,0.40378 l -0.45599,0.17663"
         style="fill:none;stroke:#000000;stroke-width:0.26458332px;stroke-linecap:butt;stroke-linejoin:miter;stroke-opacity:1" />
      <path
         inkscape:connector-curvature="0"
         id="path1027"
         d="m 189.51821,186.59217 -3.46876,-0.47695 -2.81445,0.1856 c -1.54795,0.10208 -3.76479,0.28636 -4.92632,0.40951 l -2.11186,0.2239 -3.47921,0.82392 -3.4792,0.82392 -2.02355,0.20454 c -1.11296,0.11249 -2.06135,0.21275 -2.10755,0.2228 -0.0992,0.0216 2.22379,-2.45639 2.56435,-2.73541 0.1286,-0.10536 0.34878,-0.21944 0.48929,-0.25351 0.14051,-0.0341 1.62932,-0.52365 3.30845,-1.08794 l 3.05297,-1.026 1.18076,-0.6681 c 1.4463,-0.81834 1.63255,-0.87312 2.60943,-0.76744 0.84302,0.0912 2.80532,0.15421 5.38665,0.17299 1.75202,0.0127 3.79773,0.16842 5.11164,0.38901 0.55222,0.0927 1.73685,0.57571 2.2999,0.93774 0.33746,0.21697 0.39066,0.29082 1.18848,1.64976 0.47634,0.81136 0.80353,1.4282 0.76148,1.43561 -0.0405,0.007 -1.63468,-0.20162 -3.5425,-0.46395 z"
         style="fill:#000000;fill-opacity:1;stroke:#000000;stroke-width:0.07576144;stroke-miterlimit:4;stroke-dasharray:none;stroke-opacity:1" />
      <path
         inkscape:connector-curvature="0"
         id="path1031"
         d="m 215.18556,187.47873 -0.88224,0.40634"
         style="fill:none;stroke:#000000;stroke-width:0.26458332px;stroke-linecap:butt;stroke-linejoin:miter;stroke-opacity:1" />
      <path
         inkscape:connector-curvature="0"
         id="path1033"
         d="m 214.11531,188.17852 0.33465,-0.39543"
         style="fill:none;stroke:#000000;stroke-width:0.26458332px;stroke-linecap:butt;stroke-linejoin:miter;stroke-opacity:1" />
      <path
         inkscape:connector-curvature="0"
         id="path1035"
         d="m 212.16081,190.08525 -0.12023,0.33802"
         style="fill:none;stroke:#000000;stroke-width:0.26458332px;stroke-linecap:butt;stroke-linejoin:miter;stroke-opacity:1" />
      <path
         inkscape:connector-curvature="0"
         id="path1037"
         d="m 230.33373,188.40097 -2.74021,-0.49295 -3.24673,0.0391 -3.24672,0.0391 -0.96351,0.15397 -0.9635,0.15398 -2.1764,-0.24579 -2.1764,-0.24579 0.21114,-0.0974 c 0.19082,-0.0881 0.41624,-0.1608 2.34294,-0.75595 l 2.1318,-0.65851 0.76994,-0.0637 c 2.12881,-0.17619 2.29482,-0.18696 3.30742,-0.21461 1.19036,-0.0325 1.94609,-0.0588 2.3318,-0.0812 0.56026,-0.0325 1.62914,-0.0508 2.26098,-0.0386 0.40763,0.008 0.55913,0.0313 1.70946,0.26438 0.5995,0.12149 0.61504,0.12577 0.73281,0.20141 0.24082,0.15468 0.95276,0.79128 1.65301,1.47808 0.24816,0.2434 0.28033,0.28222 0.54406,0.65652 0.15417,0.2188 0.27536,0.39852 0.26932,0.3994 -0.006,8.8e-4 -1.24409,-0.22025 -2.75121,-0.49137 z"
         style="fill:#000000;fill-opacity:1;stroke:#000000;stroke-width:0.01894036;stroke-miterlimit:4;stroke-dasharray:none;stroke-opacity:1" />
      <path
         inkscape:connector-curvature="0"
         id="path1039"
         d="m 212.70824,192.04937 c -0.0113,-0.028 -0.12803,-0.41857 -0.2594,-0.86793 l -0.23884,-0.817 0.0307,-0.0766 c 0.0256,-0.0639 0.18788,-0.23318 0.98214,-1.02421 1.07089,-1.06654 1.0068,-1.00148 1.11251,-1.1294 l 0.0786,-0.0951 0.0726,0.008 c 0.0399,0.005 0.98739,0.1116 2.10549,0.23775 l 2.03291,0.22937 -0.47206,0.20014 c -0.70622,0.29942 -1.25562,0.59341 -2.13696,1.14348 -0.84902,0.5299 -1.22405,0.77498 -1.57578,1.02975 -0.37797,0.27379 -1.69261,1.20783 -1.70366,1.21045 -0.004,9.9e-4 -0.0168,-0.0211 -0.0281,-0.0491 z"
         style="fill:#000000;fill-opacity:1;stroke:#000000;stroke-width:0.01894036;stroke-miterlimit:4;stroke-dasharray:none;stroke-opacity:1" />
      <path
         inkscape:connector-curvature="0"
         id="path1041"
         d="m 235.29695,174.33756 c -0.2777,-1.17151 -0.3687,-1.31643 -1.6178,-2.57867 -0.72791,-0.73558 -2.11939,-2.24139 -3.09216,-3.34625 -5.16735,-5.86897 -5.63859,-6.34717 -8.30992,-8.43262 -1.47516,-1.15162 -3.05764,-2.25708 -3.51662,-2.45657 -0.45899,-0.19949 -1.69787,-0.8714 -2.75306,-1.49314 -1.05518,-0.62173 -2.89372,-1.55789 -4.08563,-2.08036 -1.19191,-0.52246 -3.44252,-1.53796 -5.00135,-2.25667 -3.30027,-1.52159 -3.26293,-1.51099 -7.59989,-2.158 -5.75837,-0.85907 -9.95119,-0.62933 -25.7136,1.40897 -7.08114,0.91569 -13.82733,2.09062 -14.63285,2.5485 -0.2887,0.16411 -0.98024,0.74993 -1.53675,1.30183 -0.55651,0.5519 -1.17861,1.16875 -1.38244,1.37078 -0.20383,0.20203 -1.08362,1.95817 -1.95508,3.90252 -1.28893,2.87577 -1.68734,4.02072 -2.13591,6.13805 -1.17839,5.56223 -2.5698,11.14857 -3.40459,13.66902 -0.89933,2.71532 -1.11693,4.25788 -1.31793,9.3431 -0.0426,1.07827 -0.0858,1.98311 -0.0958,2.01074 -0.0101,0.0276 -0.68517,0.0793 -1.50018,0.11472 -0.815,0.0354 -2.43096,0.19799 -3.59102,0.3612 -1.93815,0.27266 -2.19094,0.34843 -3.11731,0.93432 l -1.00811,0.63759 -2.53359,0.0715 -2.53359,0.0715 -1.18698,0.78824 -1.18698,0.78824 -0.89794,-1.27528 c -1.44835,-2.05698 -1.92557,-3.45652 -2.33972,-6.86166 -0.19352,-1.59115 -0.56546,-4.11636 -0.82653,-5.61158 -0.31258,-1.79024 -0.45126,-3.22155 -0.40611,-4.19144 0.0872,-1.87188 -0.5301,-3.95201 -1.91155,-6.44196 -0.56149,-1.01205 -1.37101,-2.89288 -1.97234,-4.58252 -0.56098,-1.57624 -1.29741,-3.41989 -1.63652,-4.097 l -0.61656,-1.2311 0.95928,-3.51122 c 2.23657,-8.18642 3.36661,-11.24028 5.49589,-14.85216 0.96156,-1.63107 2.22954,-4.04092 2.81775,-5.35521 2.32343,-5.1915 5.23659,-10.70689 6.2828,-11.89501 0.55803,-0.63372 1.47308,-1.79953 2.03346,-2.59068 1.44474,-2.03974 1.97898,-2.49573 4.68521,-3.99902 3.64221,-2.02322 4.73884,-2.48861 8.29451,-3.52009 8.8315,-2.56196 15.42096,-3.26731 23.29787,-2.49388 2.40595,0.23625 5.89527,0.57766 7.75406,0.75871 1.85878,0.18105 5.46452,0.36783 8.01275,0.41506 7.88109,0.14609 12.92494,0.94589 18.74653,2.97264 3.10582,1.08128 3.62697,1.3325 5.49388,2.64831 4.51334,3.18105 6.22207,5.08066 8.64125,9.60655 l 1.10577,2.06872 1.78906,1.13005 c 2.1688,1.36992 5.39327,4.40127 9.2411,8.68764 1.50249,1.67374 3.21701,3.54004 3.81003,4.14733 1.36318,1.39598 2.36057,2.5888 4.02764,4.81676 l 1.32239,1.76731 0.28623,3.6338 c 0.30712,3.89892 0.26438,4.2556 -0.9106,7.59901 -0.22521,0.64083 -0.66555,2.1692 -0.97854,3.39637 l -0.56907,2.23121 -2.21655,2.86827 c -2.14966,2.7817 -3.39149,4.26894 -3.60714,4.32001 -0.0576,0.0136 -0.23724,-0.53375 -0.39911,-1.21643 z"
         style="fill:#000000;fill-opacity:1;stroke:#000000;stroke-width:0.21428572;stroke-miterlimit:4;stroke-dasharray:none;stroke-opacity:1" />
      <path
         inkscape:connector-curvature="0"
         id="path1669"
         d="m 176.90751,196.96642 -1.18858,-0.42893 -0.56426,-0.57857 -0.56427,-0.57858 -0.0822,-0.46434 -0.0822,-0.46435 1.50798,-0.8975 1.50798,-0.8975 1.26011,-0.21477 c 1.3993,-0.2385 3.36739,-0.521 3.41689,-0.49046 0.0558,0.0344 0.36403,2.92113 0.31745,2.97339 -0.17539,0.19677 -1.51345,1.53126 -1.65136,1.64696 -0.12684,0.10642 -0.50149,0.23316 -1.43039,0.48388 l -1.25852,0.3397 z"
         style="fill:#000000;fill-opacity:1;stroke:none;stroke-width:0.07576144;stroke-miterlimit:4;stroke-dasharray:none;stroke-opacity:1" />
      <path
         inkscape:connector-curvature="0"
         id="path1671"
         d="m 215.37932,197.60499 c -1.00071,-0.0578 -1.0476,-0.0683 -1.82687,-0.40772 -0.4399,-0.19162 -0.8104,-0.39224 -0.82334,-0.44582 -0.0631,-0.26073 0.0744,-0.70109 0.51271,-1.64311 0.26341,-0.56614 0.52246,-1.09001 0.57566,-1.16416 0.14961,-0.20854 2.06908,-1.65208 2.11031,-1.58707 0.0201,0.0317 0.0853,0.0461 0.1449,0.032 0.20612,-0.0488 1.48051,0.12735 2.26266,0.3127 l 0.78518,0.18607 0.21643,0.44611 c 0.20425,0.42097 0.21501,0.47029 0.19113,0.87538 -0.0399,0.67678 -0.2722,1.28904 -0.69236,1.82516 -0.45904,0.58571 -0.7953,0.87329 -1.3789,1.17929 -0.82781,0.43404 -0.94707,0.4565 -2.0775,0.39121 z"
         style="fill:#000000;fill-opacity:1;stroke:none;stroke-width:0.07576144;stroke-miterlimit:4;stroke-dasharray:none;stroke-opacity:1" />
      <path
         inkscape:connector-curvature="0"
         id="path1675"
         d="m 140.55827,194.05332 -1.36242,0.40844"
         style="fill:none;stroke:#000000;stroke-width:0.26458332px;stroke-linecap:butt;stroke-linejoin:miter;stroke-opacity:1" />
      <path
         inkscape:connector-curvature="0"
         id="path1677"
         d="m 237.8974,200.68074 c -0.24701,0.0271 -0.31749,-0.008 -0.35778,-0.1781 -0.0276,-0.11652 -0.0399,-1.18423 -0.0273,-2.37268 l 0.0229,-2.16082 -0.47031,-1.16189 c -0.43098,-1.06475 -0.52694,-1.22619 -1.14785,-1.9312 -0.37266,-0.42314 -1.12435,-1.19339 -1.67043,-1.7117 l -0.99287,-0.94236 -1.73505,-0.47134 c -0.95427,-0.25923 -1.94256,-0.50934 -2.19618,-0.55581 -0.65595,-0.12018 -4.08346,-0.26705 -4.70476,-0.2016 -0.2866,0.0302 -1.03066,0.0929 -1.65346,0.13926 -0.62281,0.0464 -1.91061,0.2394 -2.86178,0.42889 l -1.72941,0.34453 -1.10405,0.86708 c -0.60722,0.4769 -1.69244,1.31933 -2.41159,1.87208 l -1.30754,1.00501 -0.5985,1.25846 c -0.63311,1.33122 -1.20376,2.30118 -1.31387,2.23324 -0.0603,-0.0372 -0.48445,-0.9652 -0.79355,-1.73633 l -0.12522,-0.31237 -2.44735,-0.18661 c -3.05175,-0.2327 -3.79431,-0.22459 -5.27396,0.0576 l -1.18031,0.22512 -0.0774,0.34666 c -0.0851,0.38115 -1.13128,1.75558 -1.29487,1.70117 -0.0568,-0.0189 -0.22197,-0.54077 -0.37307,-1.17884 -0.14913,-0.62972 -0.4292,-1.52723 -0.6224,-1.99445 -0.40282,-0.97423 -0.62873,-1.26448 -2.52855,-3.24865 -1.2065,-1.26007 -1.32575,-1.35671 -2.41112,-1.95381 -2.05382,-1.12989 -4.52485,-1.62618 -7.62366,-1.53118 -0.63629,0.0195 -1.7904,0.0359 -2.56469,0.0365 -1.87535,0.001 -4.03865,0.28552 -5.70897,0.74972 l -1.28634,0.35748 -1.31376,0.97814 c -1.07631,0.80135 -1.49226,1.18266 -2.30148,2.10981 -0.851,0.97503 -1.0653,1.29396 -1.54812,2.30408 -0.42753,0.89442 -0.56148,1.28747 -0.56493,1.65771 -0.008,0.82738 -0.15498,1.39729 -0.50534,1.95557 -0.26985,0.43 -0.36313,0.51741 -0.46791,0.43849 -0.072,-0.0542 -0.31164,-0.63749 -0.53257,-1.29617 -0.30032,-0.89538 -0.57881,-1.51308 -1.10357,-2.44778 l -0.70189,-1.25018 -0.74946,-0.12546 c -0.4122,-0.069 -1.13045,-0.25808 -1.5961,-0.42014 l -0.84664,-0.29467 -2.06702,0.29285 c -1.13685,0.16107 -2.1868,0.34059 -2.33321,0.39894 -0.14641,0.0583 -2.0514,0.74851 -4.23331,1.5337 l -3.96711,1.42762 -0.72955,-0.34733 c -0.40125,-0.19103 -1.36934,-0.60403 -2.15131,-0.91778 -0.78197,-0.31375 -1.43007,-0.6055 -1.44021,-0.64835 -0.0102,-0.0428 -0.0663,-0.0666 -0.12471,-0.0527 -0.0584,0.0138 -0.4229,-0.095 -0.80988,-0.24196 -1.07088,-0.40654 -1.93326,-0.42557 -4.15795,-0.0917 -1.90583,0.28599 -3.34335,0.58746 -3.6352,0.76235 -0.12472,0.0747 -0.26332,0.006 -0.61092,-0.30369 -0.24729,-0.2202 -0.42518,-0.43542 -0.39532,-0.47827 0.0299,-0.0428 0.3977,-0.28851 0.81743,-0.54591 l 0.76314,-0.46799 1.98182,-0.297 c 1.13523,-0.17013 2.63361,-0.32408 3.50763,-0.3604 0.8392,-0.0349 6.2163,-0.46239 11.94912,-0.95006 l 10.4233,-0.88665 2.88236,-0.74542 c 1.5853,-0.40998 4.47934,-1.10611 6.43119,-1.54696 l 3.54882,-0.80154 2.62845,-0.1774 2.62845,-0.1774 3.86122,0.51765 c 2.12368,0.28471 4.18306,0.52269 4.57642,0.52885 l 0.7152,0.0112 1.38316,1.1782 c 0.76073,0.648 1.73049,1.45228 2.15501,1.78729 0.91551,0.72246 1.89288,1.8441 2.21282,2.53945 0.15464,0.3361 0.28383,0.50132 0.39522,0.50548 0.091,0.003 0.66676,8.7e-4 1.27943,-0.006 0.61267,-0.006 1.41427,-0.0137 1.78132,-0.016 0.36706,-0.002 1.78475,0.0794 3.15042,0.18147 4.4717,0.3344 4.20343,0.36795 4.85857,-0.60762 0.35407,-0.52727 0.59667,-0.74766 1.65354,-1.50221 1.65789,-1.18364 3.17642,-2.0956 4.30956,-2.58813 1.32609,-0.57639 2.17539,-0.67771 6.06494,-0.72351 l 3.19564,-0.0376 2.87688,0.51838 2.87689,0.51838 1.89039,0.95491 c 1.03972,0.5252 2.86986,1.37427 4.06697,1.88683 2.07632,0.889 2.17559,0.94372 2.15556,1.18815 -0.0116,0.14093 -0.0374,0.77893 -0.0575,1.41779 l -0.0365,1.16154 -0.70614,0.74628 -0.70613,0.74628 -0.41354,1.42486 c -0.22744,0.78367 -0.41866,1.45242 -0.42493,1.48611 -0.0161,0.0865 -0.84944,0.3618 -1.21733,0.40217 z"
         style="fill:#000000;fill-opacity:1;stroke:none;stroke-width:0.10714286;stroke-miterlimit:4;stroke-dasharray:none;stroke-opacity:1" />
      <path
         inkscape:connector-curvature="0"
         id="path1681"
         d="m 144.88542,202.03235 1.91102,6.61998 2.80093,0.22936"
         style="fill:none;stroke:#000000;stroke-width:0.26458332px;stroke-linecap:butt;stroke-linejoin:miter;stroke-opacity:1" />
      <path
         inkscape:connector-curvature="0"
         id="path1683"
         d="m 148.16053,208.61346 c -0.66751,-0.0559 -1.22142,-0.10591 -1.23091,-0.11109 -0.01,-0.005 -0.438,-1.46887 -0.95223,-3.25266 l -0.93495,-3.24324 -1.21893,-2.36183 -1.21893,-2.36184 -1.53298,-1.36462 c -0.84314,-0.75054 -1.53509,-1.37353 -1.53767,-1.38441 -0.007,-0.0276 1.00417,-0.33745 1.31277,-0.40239 0.1399,-0.0294 1.15062,-0.19008 2.24604,-0.35697 l 1.99168,-0.30345 0.73064,0.0679 c 0.66398,0.0617 0.78943,0.0909 1.37479,0.31997 0.56967,0.22288 0.64521,0.26581 0.65327,0.37125 0.005,0.0656 0.36292,3.35105 0.79535,7.30106 0.43242,3.95002 0.77486,7.18232 0.76096,7.1829 -0.0139,5.7e-4 -0.5714,-0.0447 -1.2389,-0.10062 z"
         style="fill:#000000;fill-opacity:1;stroke:none;stroke-width:0.05357143;stroke-miterlimit:4;stroke-dasharray:none;stroke-opacity:1" />
      <path
         sodipodi:nodetypes="cccsc"
         inkscape:connector-curvature="0"
         id="path1687"
         d="m 183.70231,235.75592 19.55838,1.84928 18.62352,-1.73314 c 0,0 -8.56974,6.15774 -18.14806,6.63221 -6.71684,0.33272 -13.52003,-1.95087 -20.03384,-6.74835 z"
         style="fill:none;stroke:#000000;stroke-width:1.20294297;stroke-linecap:butt;stroke-linejoin:miter;stroke-miterlimit:4;stroke-dasharray:none;stroke-opacity:1" />
    </g>
    <g
       id="g4886"
       transform="matrix(1.7167773,0,0,1.7154843,-15.647757,-105.42803)">
      <g
         transform="matrix(0.89888383,0,0,0.89888383,99.128586,44.06023)"
         id="g1754">
        <path
           style="fill:none;stroke:#000000;stroke-width:0.64825529;stroke-linecap:butt;stroke-linejoin:miter;stroke-miterlimit:4;stroke-dasharray:none;stroke-opacity:1"
           d="m 25.187959,196.00832 -2.04736,-5.82587 -0.55768,-0.91118 c 0,0 -1.16188,0.42326 -1.32271,0.46168 -0.16085,0.0384 -1.6434,0.44107 -1.98805,0.52339 -0.34466,0.0823 -1.02439,-0.11964 -1.32653,-0.26606 -0.30215,-0.14642 -1.3324,-0.79899 -1.42877,-0.89742 -0.0964,-0.0984 -0.80289,-1.02262 -0.92875,-1.04113 -0.12585,-0.0185 -0.83099,-0.53015 -0.98978,-0.68653 -0.15879,-0.15637 -0.772,-0.68997 -0.94076,-0.98969 -0.16875,-0.29973 -0.94199,-4.14685 -0.94199,-4.14685 0,0 -0.29674,-1.75072 -0.33516,-1.91157 -0.0384,-0.16083 -0.18011,-0.85564 -0.14856,-1.13034 0.0315,-0.27471 0.16801,-0.72019 0.25202,-1.08029 0.084,-0.3601 0.3014,-0.87351 0.34392,-1.10225 0.0425,-0.22875 0.25889,-0.64476 0.30242,-0.9709 0.0435,-0.32615 -0.0546,-1.34709 -0.0406,-1.59332 0.0141,-0.24625 0.0137,-0.7562 0.11963,-1.0244 0.10596,-0.26818 0.24243,-0.71368 0.36485,-0.91294 0.12242,-0.19925 0.55006,-0.54429 0.86728,-0.74149 0.31721,-0.19721 0.50205,-0.33852 0.81722,-0.34093 0.31518,-0.002 0.21329,-0.12384 0.21329,-0.12384 l 0.0102,-2.60125 c 0,0 -0.20632,-3.81252 -0.22827,-3.90443 -0.022,-0.0919 0.18774,-3.68806 0.18774,-3.68806 l 0.58281,-3.66098 -0.10017,-0.82615 -0.80879,-3.18286 c 0,0 -0.18837,-1.70375 -0.19079,-2.01892 -0.002,-0.31517 -0.002,-1.43249 0.0164,-1.55834 0.0185,-0.12586 0.16894,-2.44488 0.16894,-2.44488 l 0.51053,-2.23501 c 0,0 -0.30286,-1.16635 -0.3303,-1.28123 -0.0274,-0.11489 -0.43668,-1.523 -0.43668,-1.523 l -0.0818,-4.20658 0.12336,-1.92393 c 0,0 0.49378,-1.18663 0.7136,-1.38486 0.21982,-0.19824 0.84876,-0.61564 1.14848,-0.78438 0.29973,-0.16875 0.72532,-0.31897 0.97807,-0.37935 0.25275,-0.0604 -0.29322,0.0943 0.98048,-0.0642 1.27369,-0.15851 1.2442,-0.0786 1.61836,-0.24084 0.37413,-0.16226 1.46979,-1.37117 1.46979,-1.37117 0,0 2.66907,-1.53619 2.96229,-1.63053 0.29321,-0.0943 1.80524,-0.57693 2.01203,-0.62632 0.20679,-0.0494 1.18179,-0.13656 1.53193,-0.1959 0.35014,-0.0594 0.98048,-0.0642 1.2617,-0.10707 0.2812,-0.0429 1.09295,-0.40679 1.42663,-0.53506 0.33368,-0.12824 1.17388,-0.47471 1.38067,-0.5241 0.20679,-0.0494 1.475,-0.23089 1.91157,-0.33517 0.43656,-0.10427 2.62041,-0.72307 3.02749,-0.74741 0.40709,-0.0243 5.94633,-0.42454 5.94633,-0.42454 0,0 3.33586,0.44188 3.87429,0.459 0.53843,0.0171 2.51827,0.27286 2.95279,0.36337 0.43451,0.0905 1.35843,0.50132 1.8269,0.6323 0.46848,0.13098 2.4233,0.587 2.78888,0.69398 0.36559,0.10698 1.48188,0.20466 1.85743,0.45499 0.37553,0.25033 1.57489,1.71259 1.57489,1.71259 l 2.60928,1.33648 c 0,0 0.56845,0.65423 0.9943,0.99905 0.42585,0.34481 1.12428,0.968 1.44489,1.3036 0.3206,0.33561 1.13979,1.03299 1.13979,1.03299 l 3.23314,2.3191 c 0,0 0.71842,2.57628 0.64278,2.83479 -0.0756,0.2585 0.0151,1.64511 -0.16578,1.89441 -0.18089,0.2493 -0.53293,1.36385 -0.67502,1.77562 -0.14208,0.41177 -0.2051,1.01075 -0.41217,1.43805 -0.20707,0.42729 -1.18955,2.92897 -1.34427,3.00028 -0.15471,0.0713 -1.11982,0.9201 -1.11982,0.9201 l 1.70432,0.52032 c 0,0 1.69761,1.9302 1.73642,2.09267 0.0388,0.16247 0.17956,2.18977 0.17956,2.18977 0,0 0.37256,1.55974 0.40702,2.13543 0.0345,0.5757 0.72184,3.022 0.85522,3.43666 0.13339,0.41467 0.68054,1.55488 0.73198,2.05782 0.0514,0.50294 0.26297,1.96375 0.30954,2.15872 0.0466,0.19496 0.20669,1.15283 0.20669,1.15283 l -1.64198,4.34228 -0.27154,1.16401 -0.0188,1.79062 -0.43678,3.77962 0.33864,1.70525 -0.10224,2.01663 -1.341,9.62877 c 0,0 -0.34956,2.4192 -0.3835,2.56469 -0.0339,0.1455 -0.86803,2.40565 -0.86803,2.40565 l -2.44606,5.29002 -1.77115,1.21307 c 0,0 -0.62266,1.41963 -0.72936,1.54816 -0.10669,0.12853 -1.28952,1.64761 -1.28952,1.64761 l -1.72013,3.29615 c 0,0 -2.33474,0.86681 -2.58694,0.9614 -0.25219,0.0946 -3.29893,0.85667 -3.60689,0.86155 -0.30797,0.005 -1.79207,0.11891 -2.34934,-0.0571 -0.55728,-0.17603 -3.36009,-0.26221 -3.80581,-0.2588 -0.44572,0.003 -2.62337,-0.19774 -3.01962,-0.27483 -0.39625,-0.0771 -2.97792,-0.38785 -3.2534,-0.39075 -0.27547,-0.003 -7.25876,-4.79238 -7.46924,-4.8108 -0.21049,-0.0184 -3.99945,-2.65128 -3.99945,-2.65128 0,0 -1.66076,-2.35119 -1.73983,-2.5384 -0.079,-0.18721 -0.91752,-3.03002 -0.91752,-3.03002 z"
           id="path826"
           inkscape:connector-curvature="0" />
        <path
           style="fill:none;stroke:#000000;stroke-width:0.26458332px;stroke-linecap:butt;stroke-linejoin:miter;stroke-opacity:1"
           d="m 22.582919,189.27127 -0.0268,-0.72224 -0.039,-0.92578 -0.14204,-1.20477 c 0.23703,-1.29103 -0.0996,-0.0612 -0.11083,-2.14589 l -0.29737,-1.14338"
           id="path828"
           inkscape:connector-curvature="0"
           sodipodi:nodetypes="cccccc" />
        <path
           style="fill:none;stroke:#000000;stroke-width:0.26458332px;stroke-linecap:butt;stroke-linejoin:miter;stroke-opacity:1"
           d="m 22.352249,185.05167 -1.25483,-5.45654 -0.5252,-2.91057 -0.23361,-0.67283 -2.1178,-1.8501 c 0,0 -1.0934,-1.73044 -1.21824,-1.84635 -0.12485,-0.11591 -1.53069,-1.01888 -1.53069,-1.01888"
           id="path830"
           inkscape:connector-curvature="0" />
        <path
           style="fill:none;stroke:#000000;stroke-width:0.26458332px;stroke-linecap:butt;stroke-linejoin:miter;stroke-opacity:1"
           d="m 22.759549,176.28354 3.90179,8.20033 3.39276,6.47602 c 0,0 1.98514,3.02332 2.32262,3.62277 0.33749,0.59945 2.75464,1.77083 2.75464,1.77083 l 2.57492,1.42515 3.32805,1.73102 4.14145,0.66236 3.98778,0.019 0.57341,-0.0398 0.47035,-3.31837 2.45548,-0.29507 0.30473,3.71616 2.74906,0.12057 4.16194,-1.28558 c 0,0 2.47186,-1.85342 2.72972,-2.40077 0.25787,-0.54736 1.94908,-4.4488 1.94908,-4.4488 0,0 2.19466,-3.8274 2.26871,-4.33085 0.074,-0.50345 0.47035,-3.31837 0.47035,-3.31837 l -0.0507,-2.12807 0.12506,-1.48967 0.2347,-0.74304 -0.23141,-1.11257 0.21628,-0.53255 1.09486,-5.4825"
           id="path832"
           inkscape:connector-curvature="0" />
        <path
           style="fill:none;stroke:#000000;stroke-width:0.26458332px;stroke-linecap:butt;stroke-linejoin:miter;stroke-opacity:1"
           d="m 22.759549,176.28354 c 0,0 -0.92364,-1.52813 -0.95108,-1.64301 -0.0274,-0.11489 -0.10101,-3.47336 0.017,-3.79299 0.11796,-0.31963 0.40458,-1.96682 0.43164,-2.3619 0.0271,-0.39507 0.60003,-2.57213 0.64254,-2.80087 0.0425,-0.22875 2.18638,-4.6755 2.18638,-4.6755 l 3.17459,-7.65611 c 0,0 -0.0865,-1.58235 0.0479,-1.83305 0.13443,-0.2507 1.12822,-1.58104 1.51436,-1.79472 0.38615,-0.21367 3.40508,-0.6919 3.61187,-0.74129 0.2068,-0.0494 2.63382,-0.36195 2.63382,-0.36195 l 10.00471,-1.12676 c 0,0 4.07941,1.11436 4.62882,1.17743 0.5494,0.0631 2.33789,0.53454 2.88181,0.57463 0.54391,0.0401 4.82872,0.6925 5.27523,0.73157 0.44653,0.0391 2.7381,0.0746 2.93837,0.0996 0.20029,0.025 2.68928,-0.0181 2.68928,-0.0181"
           id="path834"
           inkscape:connector-curvature="0" />
        <path
           style="fill:none;stroke:#000000;stroke-width:0.26458332px;stroke-linecap:butt;stroke-linejoin:miter;stroke-opacity:1"
           d="m 28.851239,165.23615 c 0.48887,-0.25417 8.08286,-2.68635 8.08286,-2.68635 l 5.82192,-0.36017 4.53765,0.0153 2.23882,1.32006 0.66357,1.62763 c 0,0 -2.19699,0.86826 -2.58693,0.9614 -0.38994,0.0931 -2.01177,0.20574 -2.38329,0.0884 -0.37151,-0.11735 -2.458,-0.51203 -3.02449,-0.58281 -0.56648,-0.0708 -2.44537,-0.17156 -4.22823,-0.15789 -1.78286,0.0137 -2.73927,0.036 -2.73927,0.036 0,0 -2.59667,0.34545 -3.18158,0.48517 -0.58489,0.1397 -1.1698,0.27942 -1.68971,0.4036 -0.51992,0.12419 -1.51132,-1.15034 -1.51132,-1.15034 z"
           id="path855"
           inkscape:connector-curvature="0" />
        <path
           style="fill:none;stroke:#000000;stroke-width:0.26458332px;stroke-linecap:butt;stroke-linejoin:miter;stroke-opacity:1"
           d="m 56.518669,168.03897 0.11237,-2.98081 0.4636,-0.93511 2.01756,-0.7567 c 0,0 2.45511,0.78751 3.02159,0.85829 0.56649,0.0708 2.68455,1.31664 2.68455,1.31664 l 1.01317,0.35908 0.88808,0.69811 0.43993,0.54754 -0.17603,0.55727 c 0,0 -0.6545,0.20785 -0.76363,0.1824 -0.10912,-0.0254 -1.53579,-0.74948 -1.60393,-0.81907 -0.0681,-0.0696 -0.50708,-0.32541 -0.66811,-0.42434 -0.16102,-0.0989 -0.76172,-0.38481 -1.05732,-0.40007 -0.2956,-0.0152 -1.26511,0.0961 -1.67906,0.16062 -0.41394,0.0645 -1.34392,0.2695 -1.66886,0.34712 -0.32494,0.0776 -1.30051,0.37932 -1.45522,0.45065 -0.15471,0.0713 -1.56868,0.8384 -1.56868,0.8384 z"
           id="path857"
           inkscape:connector-curvature="0" />
        <path
           style="fill:none;stroke:#000000;stroke-width:0.26458332px;stroke-linecap:butt;stroke-linejoin:miter;stroke-opacity:1"
           d="m 33.450109,171.76304 c 0,0 1.70787,-0.9747 1.88659,-1.01739 0.17872,-0.0427 1.34609,-0.4761 1.53257,-0.48629 0.18648,-0.0102 1.45232,-0.17517 1.74016,-0.19239 0.28785,-0.0173 0.76218,-0.0447 1.03694,0.0271 0.27475,0.0718 0.33975,0.0562 0.65792,0.23786 0.31817,0.18161 0.32205,0.19786 0.73309,0.40882 0.41105,0.21094 0.78257,0.3283 1.20526,0.588 0.42269,0.25969 0.41881,0.24344 0.65113,0.49708 0.23234,0.25364 0.57306,0.60162 0.64508,0.68745 0.072,0.0859 0.35626,0.41296 0.24253,0.44013 -0.11373,0.0272 -1.30293,0.22537 -1.75642,0.19627 -0.45347,-0.0291 -0.61206,0.026 -0.98502,0.0464 -0.37296,0.0204 -0.52695,0.0228 -1.0345,0.12688 -0.50754,0.10406 -0.27305,0.15107 -0.99496,0.22049 -0.72192,0.0694 -1.0762,0.23989 -1.52508,0.15819 -0.44887,-0.0817 -0.63851,-0.15662 -0.97753,-0.28173 -0.33902,-0.12512 -0.15326,-0.0665 -0.68193,-0.26648 -0.52865,-0.20003 -1.08665,-0.30719 -1.33279,-0.40296 -0.24614,-0.0958 -0.90333,-0.40251 -0.99549,-0.50071 -0.0921,-0.0982 -0.0476,-0.4867 -0.0476,-0.4867 z"
           id="path861"
           inkscape:connector-curvature="0" />
        <path
           style="fill:none;stroke:#000000;stroke-width:0.64825529;stroke-linecap:butt;stroke-linejoin:miter;stroke-miterlimit:4;stroke-dasharray:none;stroke-opacity:1"
           d="m 48.303979,172.47423 c 0,0 0.0961,2.41578 0.0205,2.67429 -0.0756,0.25851 0.27704,2.16649 0.27704,2.16649 l -0.095,1.32793 c 0,0 -0.61057,1.0389 -0.77448,1.21545 -0.16392,0.17654 -0.93261,0.84103 -0.93261,0.84103 0,0 -1.42489,0.64949 -1.64459,0.73632 -0.21971,0.0868 -1.2081,0.83814 -1.2081,0.83814 0,0 -0.22694,0.77553 -0.26088,0.92103 -0.0339,0.14549 10e-4,1.44239 10e-4,1.44239 l 0.50833,0.97773 c 0,0 0.67514,0.5257 0.82064,0.55965 0.1455,0.0339 0.67029,0.21773 0.67029,0.21773 0,0 0.34046,-0.0126 0.4782,-0.0112 0.13775,10e-4 1.41424,-0.40648 1.41424,-0.40648 0,0 0.95011,-0.19261 1.20086,-0.14944 0.25075,0.0431 0.92247,0.12314 1.1965,0.26378 0.27403,0.14063 0.7804,0.53491 0.9259,0.56885 0.1455,0.0339 0.75224,0.12946 0.938,0.18813 0.18575,0.0587 0.50149,0.0863 0.50149,0.0863 0,0 0.11154,0.17946 0.60043,-0.0747 0.48886,-0.25416 1.0039,-0.68632 1.19887,-0.73289 0.19497,-0.0466 0.81237,-0.19404 1.07232,-0.25614 0.25996,-0.0621 1.2736,-0.13247 1.54132,-0.16207 0.26772,-0.0296 0.38994,-0.0931 0.62662,-0.25271 0.23666,-0.15958 0.61107,-0.31771 0.73474,-0.51899 0.12367,-0.20129 0.25601,-1.22901 0.25601,-1.22901 0,0 -0.39822,-0.66055 -0.59805,-0.92195 -0.19983,-0.2614 -0.45544,-0.61253 -0.68778,-0.86617 -0.23232,-0.25364 -1.76548,-1.63921 -1.89401,-1.7459 -0.12852,-0.1067 -0.49136,-1.05049 -0.75329,-1.57185 -0.26192,-0.52135 -0.72855,-1.6121 -0.82945,-2.03452 -0.1009,-0.42243 -0.3052,-2.57194 -0.38281,-2.89689 -0.0776,-0.32494 -0.0393,-0.88366 -0.0393,-0.88366"
           id="path865"
           inkscape:connector-curvature="0" />
        <path
           style="fill:none;stroke:#000000;stroke-width:0.26458332px;stroke-linecap:butt;stroke-linejoin:miter;stroke-opacity:1"
           d="m 51.768179,188.27146 -2.9537,-1.14929 -9.93702,2.54531 -0.2822,1.407 1.41436,1.89482 4.18404,-1.03375 c 0,0 3.41048,-0.67724 3.67044,-0.73933 0.25995,-0.0621 1.98072,-0.33572 2.28869,-0.34058 0.30798,-0.005 1.93323,0.32824 2.13595,0.31416 0.20273,-0.0141 1.79062,0.0188 2.08163,0.0867 0.291,0.0679 2.54339,0.86946 2.85912,0.8971 0.31574,0.0276 1.51225,0.2914 1.51225,0.2914 l 0.67172,0.08 0.0595,-3.34601 -5.5897,-1.68751 z"
           id="path869"
           inkscape:connector-curvature="0" />
        <path
           style="fill:none;stroke:#000000;stroke-width:0.64825529;stroke-linecap:butt;stroke-linejoin:miter;stroke-miterlimit:4;stroke-dasharray:none;stroke-opacity:1"
           d="m 18.942729,179.62404 -1.3593,2.85063 3.05921,2.23243"
           id="path903"
           inkscape:connector-curvature="0" />
        <ellipse
           style="fill:#000000;fill-opacity:1;stroke:#000000;stroke-width:0.31778076;stroke-miterlimit:4;stroke-dasharray:none;stroke-opacity:1"
           id="path907"
           cx="29.216793"
           cy="172.55553"
           rx="1.8370484"
           ry="1.1797619"
           transform="matrix(0.99982196,-0.01886939,0.05371417,0.99855635,0,0)" />
        <path
           style="fill:#000000;fill-opacity:1;stroke:#000000;stroke-width:0.07576144;stroke-miterlimit:4;stroke-dasharray:none;stroke-opacity:1"
           d="m 66.015869,167.88868 c -0.18305,-0.0669 -0.84665,-0.41709 -1.47466,-0.77811 -0.62802,-0.36101 -1.27751,-0.6858 -1.4433,-0.72173 -0.54164,-0.11742 -1.83289,0.0695 -3.52272,0.50991 -1.48025,0.3858 -1.50217,0.39376 -2.30501,0.83677 -0.4458,0.246 -0.82113,0.44013 -0.83406,0.43141 -0.0129,-0.009 0.004,-0.70825 0.0366,-1.55451 0.0606,-1.55056 0.0731,-1.61836 0.42566,-2.31077 0.13312,-0.26146 0.13401,-0.26196 1.17319,-0.6505 l 1.03996,-0.38884 0.81607,0.25343 c 0.44883,0.13938 1.22151,0.35881 1.71705,0.48762 0.93796,0.24381 1.5034,0.48299 2.57521,1.08929 0.34949,0.1977 0.86185,0.43859 1.13857,0.53531 0.57657,0.20151 1.32035,0.73698 1.6804,1.20977 l 0.23304,0.30599 -0.0934,0.29385 c -0.0738,0.23211 -0.14256,0.31559 -0.32743,0.39732 -0.39307,0.17377 -0.49005,0.18002 -0.83523,0.0538 z m 0.94169,-0.45971 c 0.10252,-0.21683 0.0827,-0.28704 -0.16178,-0.57368 -0.35139,-0.41195 -0.9809,-0.84483 -1.51942,-1.04481 -0.28537,-0.10597 -0.87495,-0.38929 -1.31018,-0.6296 -0.96141,-0.53083 -1.50551,-0.76928 -2.03332,-0.89109 -0.21993,-0.0507 -0.94453,-0.25492 -1.61021,-0.45369 l -1.21033,-0.36141 -0.86101,0.31776 c -0.47355,0.17478 -0.91646,0.34443 -0.98424,0.37702 -0.0678,0.0326 -0.21725,0.2603 -0.33216,0.50602 -0.19418,0.41522 -0.21226,0.54089 -0.25619,1.78028 -0.026,0.73344 -0.0316,1.34318 -0.0123,1.35498 0.0192,0.0118 0.22567,-0.0841 0.4588,-0.21305 0.95503,-0.52834 1.3077,-0.65758 2.686,-0.98429 1.64424,-0.38975 2.76584,-0.5253 3.3254,-0.40191 0.24149,0.0532 0.72242,0.2805 1.27771,0.60373 0.97823,0.56943 1.69007,0.93802 1.85477,0.96041 0.20302,0.0276 0.60795,-0.17628 0.6885,-0.34667 z"
           id="path928"
           inkscape:connector-curvature="0" />
        <path
           style="fill:#000000;fill-opacity:1;stroke:#000000;stroke-width:0.07576144;stroke-miterlimit:4;stroke-dasharray:none;stroke-opacity:1"
           d="m 66.051069,167.61079 c -0.16375,-0.0686 -0.78095,-0.40063 -1.37156,-0.73778 -1.70104,-0.97104 -1.95104,-0.98626 -4.8449,-0.29494 -1.72397,0.41184 -1.76621,0.42536 -2.41238,0.7729 -0.36173,0.19455 -0.67001,0.34546 -0.68509,0.33534 -0.0458,-0.0307 0.0475,-2.1987 0.10822,-2.51596 0.0312,-0.16294 0.14167,-0.44294 0.2455,-0.62222 l 0.18881,-0.32596 0.9174,-0.3388 0.91741,-0.33879 0.77621,0.23913 c 0.42692,0.13153 1.08953,0.32135 1.47247,0.42181 0.99095,0.25998 1.39201,0.4222 2.55243,1.0324 0.56455,0.29686 1.14658,0.57944 1.29339,0.62795 0.39046,0.12901 1.28251,0.73456 1.53241,1.04026 0.26597,0.32535 0.24337,0.50127 -0.088,0.68458 -0.29684,0.16424 -0.26122,0.16305 -0.60236,0.0201 z"
           id="path930"
           inkscape:connector-curvature="0" />
        <path
           style="fill:#000000;fill-opacity:1;stroke:#000000;stroke-width:0.07576144;stroke-miterlimit:4;stroke-dasharray:none;stroke-opacity:1"
           d="m 47.131089,166.02562 c -0.98996,0.0973 -1.61281,0.0618 -2.61283,-0.14928 -2.45255,-0.51757 -3.65417,-0.60323 -7.8962,-0.56293 -1.60418,0.0152 -3.50052,0.26039 -5.25377,0.67918 l -1.13525,0.27116 -0.30102,-0.20192 c -0.16557,-0.11105 -0.41368,-0.32707 -0.55137,-0.48002 l -0.25034,-0.27811 0.29998,-0.11328 c 0.42426,-0.1602 3.5957,-1.20889 5.74674,-1.90025 l 1.81827,-0.58441 2.77555,-0.1718 c 1.86885,-0.11568 3.53871,-0.17111 5.11175,-0.16969 l 2.3362,0.002 1.0882,0.63018 1.0882,0.63017 0.28114,0.68932 c 0.21293,0.52207 0.26533,0.70521 0.21597,0.75483 -0.0688,0.0692 -2.28827,0.90172 -2.45974,0.92269 -0.0551,0.007 -0.19073,0.0212 -0.30148,0.0321 z"
           id="path932"
           inkscape:connector-curvature="0" />
        <path
           style="fill:#000000;fill-opacity:1;stroke:#000000;stroke-width:0.07576144;stroke-miterlimit:4;stroke-dasharray:none;stroke-opacity:1"
           d="m 51.090619,209.88327 c -0.82422,0.0203 -1.03858,0.005 -2.18573,-0.15488 -0.35705,-0.0498 -1.2218,-0.11103 -1.92167,-0.13607 -1.92153,-0.0687 -3.35804,-0.18435 -4.92862,-0.39666 -0.78088,-0.10556 -1.7206,-0.22182 -2.08827,-0.25835 -0.7789,-0.0774 -0.49176,0.0848 -4.23318,-2.39125 -1.25852,-0.83289 -3.01986,-1.97331 -3.91409,-2.53427 -2.30928,-1.44866 -3.80937,-2.49471 -4.03586,-2.81433 -0.10305,-0.14541 -0.48846,-0.69992 -0.85647,-1.23223 l -0.66911,-0.96785 -0.48757,-1.60679 c -0.26816,-0.88374 -0.92587,-2.86231 -1.46158,-4.39682 -0.79519,-2.27782 -1.02826,-2.88107 -1.26954,-3.28599 l -0.29553,-0.49598 -0.0347,-0.86778 c -0.0191,-0.47728 -0.064,-1.07719 -0.0997,-1.33313 -0.0358,-0.25594 -0.0451,-0.62469 -0.0207,-0.81943 0.0244,-0.19475 0.0106,-0.50059 -0.0306,-0.67965 -0.0412,-0.17909 -0.0885,-0.53874 -0.10501,-0.79928 -0.019,-0.29928 -0.10529,-0.72134 -0.23446,-1.1462 -0.24861,-0.81771 -0.74685,-3.05883 -1.21224,-5.45268 -0.23787,-1.22354 -0.38588,-1.85485 -0.47448,-2.02375 -0.0776,-0.14788 -0.54255,-0.60799 -1.16951,-1.15725 -0.9758,-0.85486 -1.07037,-0.95832 -1.5149,-1.65724 -0.64574,-1.01527 -0.72767,-1.10242 -1.51991,-1.61662 l -0.69223,-0.4493 0.005,-1.26305 c 0.003,-0.69468 -0.0465,-2.19356 -0.10981,-3.33084 -0.15417,-2.77182 -0.0516,-4.75704 0.38079,-7.37285 l 0.30149,-1.82379 -0.52104,-2.38299 c -0.53582,-2.45061 -0.60252,-2.91638 -0.60405,-4.21798 -10e-4,-1.25245 0.16043,-3.13883 0.34158,-3.98014 l 0.18323,-0.85096 23.59835,-5.63673 23.59834,-5.63673 0.63024,0.59294 c 0.35551,0.33447 1.35757,1.11331 2.29873,1.78666 l 1.66848,1.19372 0.29751,1.07957 c 0.19022,0.69026 0.30209,1.21474 0.31025,1.45437 0.0236,0.69319 -0.0404,1.7876 -0.11476,1.96469 -0.26249,0.62472 -0.71883,1.93821 -0.87302,2.51279 -0.10013,0.37313 -0.46871,1.34292 -0.81907,2.15508 l -0.63702,1.47666 -0.57819,0.48406 -0.57819,0.48407 -1.11858,0.0132 c -2.57674,0.0304 -4.3316,-0.0794 -6.7179,-0.42029 -1.25177,-0.1788 -2.49026,-0.34944 -2.75219,-0.3792 -0.77216,-0.0877 -4.09783,-0.81738 -6.01613,-1.31995 l -1.77861,-0.46597 -5.31587,0.60935 c -6.35008,0.72789 -6.26675,0.71729 -8.10051,1.03065 -2.07636,0.35483 -2.80203,0.53508 -3.06822,0.76213 -0.24741,0.21103 -0.91977,1.02328 -1.20239,1.45256 -0.2399,0.36439 -0.27983,0.58307 -0.26899,1.473 l 0.009,0.69931 -1.56283,3.7709 c -0.85955,2.07401 -1.8638,4.39926 -2.23166,5.16722 -1.45648,3.04064 -1.53454,3.23358 -1.84505,4.56016 -0.15957,0.68174 -0.34107,1.5811 -0.40333,1.99857 -0.0622,0.41748 -0.18415,1.11124 -0.27088,1.54169 -0.0867,0.43046 -0.16121,1.09263 -0.16552,1.47149 -0.0139,1.22063 0.0208,2.56417 0.0718,2.77745 0.0273,0.11419 0.25785,0.5649 0.51239,1.00157 0.25453,0.43667 1.33338,2.62309 2.39743,4.85872 1.24853,2.62324 2.53607,5.21235 3.63052,7.30064 1.45609,2.7783 1.84798,3.47152 2.77143,4.90247 0.59155,0.91664 1.14509,1.78162 1.23009,1.92218 0.21516,0.3558 0.93149,0.86456 2.07896,1.47656 0.53723,0.28653 1.52884,0.82614 2.20358,1.19912 0.67473,0.37299 1.95948,1.05809 2.85499,1.52244 l 1.6282,0.84427 2.1014,0.33461 c 2.08424,0.33188 2.11868,0.33465 4.21928,0.3406 1.16484,0.003 2.2211,-0.009 2.34726,-0.028 l 0.22938,-0.034 0.22498,-1.56508 c 0.12374,-0.86079 0.24041,-1.60739 0.25927,-1.65911 0.0272,-0.0745 0.24645,-0.11782 1.05835,-0.20887 0.56322,-0.0632 1.04038,-0.1048 1.06036,-0.0925 0.02,0.0123 0.0992,0.80405 0.17599,1.75951 0.0768,0.95547 0.14832,1.77341 0.15889,1.81766 0.0117,0.0489 0.58342,0.10558 1.46003,0.14463 l 1.44082,0.0642 2.14549,-0.6606 2.14548,-0.6606 1.06437,-0.87032 c 0.5854,-0.47868 1.1941,-1.00709 1.35267,-1.17424 0.23676,-0.24957 0.47933,-0.73644 1.3567,-2.72306 0.70378,-1.59358 1.33293,-2.89261 1.84355,-3.80651 1.31964,-2.36187 1.30656,-2.32632 1.58849,-4.31527 0.20218,-1.42637 0.23977,-1.91443 0.21944,-2.84889 -0.0289,-1.33001 0.0562,-2.38873 0.23334,-2.90294 0.11557,-0.33542 0.11594,-0.4189 0.004,-0.88798 -0.10979,-0.45963 -0.11049,-0.55627 -0.006,-0.86095 0.0646,-0.18876 0.18275,-0.68339 0.26257,-1.09918 0.0798,-0.4158 0.14947,-0.76551 0.15477,-0.77716 0.005,-0.0116 0.0823,0.34094 0.17086,0.78355 0.24707,1.23322 0.17846,2.06671 -0.67074,8.14794 -0.40391,2.89245 -0.79135,5.62812 -0.86098,6.07926 -0.18021,1.16757 -0.73961,2.64572 -2.18653,5.7776 l -1.21293,2.62542 -0.89283,0.61894 -0.89283,0.61893 -0.35222,0.7624 c -0.2663,0.57641 -0.51227,0.96607 -1.00829,1.5973 -0.54204,0.68981 -0.80037,1.11232 -1.48642,2.43118 -0.45671,0.87795 -0.83904,1.61181 -0.84963,1.63081 -0.0106,0.019 -0.5213,0.22744 -1.13492,0.46321 -0.87168,0.33493 -1.51917,0.53189 -2.9608,0.90061 -1.78541,0.45666 -1.87136,0.47257 -2.65489,0.4919 z"
           id="path934"
           inkscape:connector-curvature="0" />
        <path
           style="fill:#000000;fill-opacity:1;stroke:#000000;stroke-width:0.07576144;stroke-miterlimit:4;stroke-dasharray:none;stroke-opacity:1"
           d="m 15.629659,145.87743 c -0.005,-0.0191 0.0311,-0.1993 0.0791,-0.40053 l 0.0874,-0.36586 -0.38599,-1.36384 -0.38599,-1.36383 -0.0447,-2.12486 c -0.0568,-2.70055 0.0151,-3.83588 0.28024,-4.42751 0.28595,-0.63795 0.49917,-0.90168 1.01376,-1.25394 0.59823,-0.40951 1.12298,-0.65167 1.50331,-0.69376 0.16713,-0.0185 0.7719,-0.0802 1.34395,-0.13712 0.57205,-0.0569 1.12029,-0.14006 1.21833,-0.18474 0.23209,-0.10579 0.72327,-0.5256 1.20506,-1.02997 0.33596,-0.3517 0.56518,-0.50304 1.80984,-1.1949 1.33881,-0.74419 1.48714,-0.81149 2.4482,-1.11084 1.02195,-0.31831 2.00746,-0.48979 3.19449,-0.5558 0.55476,-0.0309 0.99421,-0.15667 2.06185,-0.59033 0.93271,-0.37885 1.07506,-0.41788 3.64278,-0.99896 l 2.67213,-0.60471 2.97295,-0.20819 2.97294,-0.20818 1.24071,0.16121 c 0.68239,0.0887 1.82611,0.21776 2.54162,0.28687 2.47215,0.23881 2.96903,0.32874 4.02409,0.72829 0.67318,0.25494 3.23459,0.91248 4.35118,1.117 0.35561,0.0651 0.78028,0.19549 0.94372,0.2897 0.18247,0.10517 0.55087,0.46564 0.9546,0.93407 l 0.65746,0.76281 1.30007,0.66586 c 1.1545,0.59131 1.34982,0.71659 1.74427,1.11882 0.2443,0.24912 0.63564,0.61616 0.86963,0.81565 0.234,0.19949 0.51359,0.44212 0.62131,0.53919 l 0.19587,0.17648 -23.56298,5.62828 c -12.95964,3.09556 -23.56671,5.61269 -23.57126,5.59364 z"
           id="path936"
           inkscape:connector-curvature="0" />
        <path
           style="fill:none;stroke:#000000;stroke-width:0.26458332px;stroke-linecap:butt;stroke-linejoin:miter;stroke-opacity:1"
           d="m 15.612339,145.98689 47.19669,-11.27346"
           id="path938"
           inkscape:connector-curvature="0" />
        <path
           style="fill:#000000;fill-opacity:1;stroke:#000000;stroke-width:0.07576144;stroke-miterlimit:4;stroke-dasharray:none;stroke-opacity:1"
           d="m 58.640419,192.24496 c -0.3157,-0.0594 -0.79995,-0.14801 -1.07611,-0.19687 -0.27616,-0.0489 -1.11495,-0.28981 -1.864,-0.53543 -1.32056,-0.43303 -1.39073,-0.44747 -2.31198,-0.4759 -1.06659,-0.0329 -1.32198,-0.0574 -2.44845,-0.23444 -0.76198,-0.11978 -0.83484,-0.11812 -1.91315,0.0434 -1.79716,0.26925 -5.46785,1.03757 -7.28921,1.52573 l -1.647,0.44143 -0.63674,-0.86564 c -0.35021,-0.47611 -0.6442,-0.8993 -0.65332,-0.94042 -0.009,-0.0412 0.0357,-0.32151 0.0996,-0.62306 0.10345,-0.48797 0.13798,-0.55693 0.31395,-0.62696 0.10875,-0.0433 2.3099,-0.61508 4.89145,-1.27068 l 4.69373,-1.192 0.64612,0.25166 c 0.35537,0.13842 1.02491,0.39782 1.48785,0.57644 l 0.84173,0.32477 1.05324,-0.39234 1.05323,-0.39235 2.67841,0.80759 c 1.47313,0.44417 2.69292,0.81555 2.71064,0.82527 0.0355,0.0195 0.005,2.82618 -0.0327,2.96881 -0.0169,0.0644 -0.18198,0.0591 -0.5973,-0.019 z"
           id="path942"
           inkscape:connector-curvature="0" />
        <path
           style="fill:none;stroke:#000000;stroke-width:0.26458332px;stroke-linecap:butt;stroke-linejoin:miter;stroke-opacity:1"
           d="m 65.570369,148.92991 2.7833,2.66732 2.02921,6.4617 1.27142,8.78004 -2.96914,6.26276"
           id="path944"
           inkscape:connector-curvature="0" />
        <path
           style="fill:#000000;fill-opacity:1;stroke:#000000;stroke-width:0.05357143;stroke-miterlimit:4;stroke-dasharray:none;stroke-opacity:1"
           d="m 68.850609,172.23692 c 0.003,-0.0474 0.007,-0.26953 0.009,-0.49371 0.008,-0.70695 0.2236,-1.44298 1.10347,-3.76897 l 0.8175,-2.16111 -0.17117,-0.95492 c -0.0941,-0.52521 -0.20855,-1.25203 -0.25427,-1.61515 -0.11435,-0.90835 -0.21149,-1.27519 -0.58148,-2.19597 -0.29634,-0.73751 -0.34792,-0.91249 -0.71477,-2.42488 -0.51312,-2.11554 -0.7517,-3.44923 -0.879,-4.9141 l -0.0992,-1.1414 -0.89328,-1.05937 -0.89327,-1.05937 -0.73067,-0.22169 c -0.40187,-0.12192 -0.73288,-0.23095 -0.73558,-0.24227 -0.007,-0.0311 0.84584,-0.72342 0.8713,-0.70698 0.11112,0.0718 2.50659,2.40659 2.53747,2.47322 0.0224,0.0484 0.48168,1.50184 1.02058,3.22994 l 0.97982,3.142 0.62247,4.27175 c 0.34235,2.34946 0.61833,4.32102 0.61328,4.38123 -0.009,0.10243 -2.56202,5.53231 -2.6066,5.54296 -0.0113,0.003 -0.0184,-0.0339 -0.0159,-0.0812 z"
           id="path946"
           inkscape:connector-curvature="0" />
        <path
           style="fill:none;stroke:#000000;stroke-width:0.64825529;stroke-linecap:butt;stroke-linejoin:miter;stroke-miterlimit:4;stroke-dasharray:none;stroke-opacity:1"
           d="m 58.360079,193.29183 -4.59107,-1.10168 -1.23478,0.29494 -1.84982,-0.55425 -9.52288,1.69072 11.50569,0.85834 z"
           id="path950"
           inkscape:connector-curvature="0" />
        <path
           style="fill:none;stroke:#000000;stroke-width:0.64825529;stroke-linecap:butt;stroke-linejoin:miter;stroke-miterlimit:4;stroke-dasharray:none;stroke-opacity:1"
           d="m 51.998059,155.11535 c 0.18381,-0.0439 7.03321,1.38034 7.50169,1.51132 0.46847,0.13098 5.66909,3.60064 5.66909,3.60064 l 0.51926,0.75034"
           id="path952"
           inkscape:connector-curvature="0" />
        <path
           style="fill:none;stroke:#000000;stroke-width:0.64825529;stroke-linecap:butt;stroke-linejoin:miter;stroke-miterlimit:4;stroke-dasharray:none;stroke-opacity:1"
           d="m 55.850199,158.22704 2.98571,0.50123 3.60172,1.85996 2.87948,1.88674"
           id="path954"
           inkscape:connector-curvature="0" />
      </g>
      <ellipse
         style="fill:#000000;fill-opacity:1;stroke:#000000;stroke-width:0.23395787;stroke-miterlimit:4;stroke-dasharray:none;stroke-opacity:1"
         id="path907-3"
         cx="144.00208"
         cy="202.50664"
         rx="1.3265347"
         ry="0.885557"
         transform="matrix(0.99980757,-0.01961683,0.05167239,0.99866409,0,0)" />
      <path
         style="fill:none;stroke:#000000;stroke-width:0.21930538px;stroke-linecap:butt;stroke-linejoin:miter;stroke-opacity:1"
         d="m 158.14423,199.40221 c 0,0 -1.30535,-0.87614 -1.44195,-0.91452 -0.1366,-0.0384 -1.02884,-0.42795 -1.17136,-0.43711 -0.14252,-0.009 -1.11002,-0.15746 -1.33003,-0.17294 -0.22001,-0.0155 -0.58253,-0.0402 -0.79254,0.0244 -0.21,0.0645 -0.25967,0.0505 -0.50285,0.21381 -0.24318,0.16325 -0.24615,0.17785 -0.56032,0.36748 -0.31416,0.18961 -0.59812,0.2951 -0.92119,0.52854 -0.32307,0.23344 -0.32009,0.21883 -0.49766,0.44682 -0.17758,0.22799 -0.438,0.54079 -0.49305,0.61794 -0.055,0.0772 -0.27228,0.3712 -0.18535,0.39563 0.087,0.0245 0.99583,0.20258 1.34244,0.17642 0.34659,-0.0262 0.4678,0.0234 0.75286,0.0417 0.28506,0.0183 0.40275,0.0205 0.79068,0.11405 0.38792,0.0935 0.2087,0.13579 0.76046,0.19819 0.55177,0.0624 0.82256,0.21564 1.16563,0.1422 0.34308,-0.0734 0.48802,-0.14079 0.74715,-0.25325 0.25911,-0.11246 0.11713,-0.0598 0.5212,-0.23953 0.40406,-0.1798 0.83053,-0.27613 1.01867,-0.36222 0.18812,-0.0861 0.69041,-0.3618 0.76086,-0.45008 0.0704,-0.0883 0.0364,-0.43748 0.0364,-0.43748 z"
         id="path861-6"
         inkscape:connector-curvature="0" />
    </g>
    <g
       id="g954"
       transform="matrix(0.91431385,-0.03467457,0.04427434,1.1656867,43.094272,-34.506652)"
       style="fill:#008e20;fill-opacity:0;stroke-width:0.76830316;stroke-miterlimit:4;stroke-dasharray:none">
      <path
         inkscape:connector-curvature="0"
         id="path923"
         d="m 113.75659,285.07309 0.96885,-1.31964 0.61806,-1.50339 0.66818,-1.85418 0.66817,-2.27179 0.45102,-3.37428 0.0835,-3.10701 0.16704,-2.53906 0.13364,-0.7851 0.15034,-1.83748 -0.16705,-1.43658 -0.20045,-0.98555 -0.20045,-0.16705 -0.63477,-2.62258 -0.20045,-0.21715 0.53454,-3.35758 -0.10022,-1.98781 -0.45102,-1.40317 -0.15034,-0.0835 -1.01896,2.02122 0.0501,1.1359 h -0.25057 c 0,0 -0.33408,-2.65599 -0.35079,-2.72281 -0.0167,-0.0668 0.35079,-1.97111 0.35079,-1.97111 l 1.00226,-2.50565 0.53454,-3.70837 -0.20045,-1.46998 -0.46772,-0.66817 -0.18375,-0.0501 -1.40316,2.95667 -0.68488,0.68488 -0.81851,-1.58691 -0.76841,-1.50339 -0.4176,-0.10023 -0.11693,-0.41761 -0.48443,-0.15034 -0.73499,2.72281 0.13363,1.58691 0.13364,1.58692 0.26727,1.98782 0.20045,1.43657 -0.43431,1.85418 -0.70158,1.98782 v 0.13363 l 0.0167,-2.47224 -0.95215,1.35305 -0.63476,0.95215 -1.63703,3.67496 -1.72054,4.05915 -0.18375,-0.0334 1.38646,5.57925 0.41761,3.97564 0.55124,1.70384 1.87089,4.40995 1.1526,1.85418 1.05237,0.93544 1.01896,1.36976 0.51784,0.43431 0.58465,-0.15034 0.18375,-0.0334 0.3675,0.11693 z"
         style="fill:#008e20;fill-opacity:0;stroke:#000000;stroke-width:0.76830316;stroke-linecap:butt;stroke-linejoin:miter;stroke-miterlimit:4;stroke-dasharray:none;stroke-opacity:1" />
      <path
         inkscape:connector-curvature="0"
         id="path925"
         d="m 110.8238,252.38109 0.47247,-0.62012 c 0,0 0.82682,-0.28348 0.86226,-0.28348 0.0354,0 0.98628,0.1004 1.03943,0.11221 0.0532,0.0118 0.75005,0.17718 0.75005,0.17718 l 0.63193,0.24804 0.26576,0.43704"
         style="fill:#008e20;fill-opacity:0;stroke:#000000;stroke-width:0.76830316;stroke-linecap:butt;stroke-linejoin:miter;stroke-miterlimit:4;stroke-dasharray:none;stroke-opacity:1" />
      <path
         inkscape:connector-curvature="0"
         id="path927"
         d="m 106.00575,270.57377 0.26462,-1.9338 0.75595,-4.14593 0.93313,-3.10649 1.37016,-3.33091 0.40121,-0.72942"
         style="fill:#008e20;fill-opacity:0;stroke:#000000;stroke-width:0.76830316;stroke-linecap:butt;stroke-linejoin:miter;stroke-miterlimit:4;stroke-dasharray:none;stroke-opacity:1" />
      <path
         inkscape:connector-curvature="0"
         id="path929"
         d="m 116.26222,261.05225 -0.57788,-2.03886 c 0,0 -0.68508,-1.21661 -0.6969,-1.26386 -0.0118,-0.0472 -0.11169,-0.37222 -0.11169,-0.37222"
         style="fill:#008e20;fill-opacity:0;stroke:#000000;stroke-width:0.76830316;stroke-linecap:butt;stroke-linejoin:miter;stroke-miterlimit:4;stroke-dasharray:none;stroke-opacity:1" />
      <path
         inkscape:connector-curvature="0"
         id="path931"
         d="m 113.35566,285.07315 0.35611,-0.93615 0.4961,-0.46066"
         style="fill:#008e20;fill-opacity:0;stroke:#000000;stroke-width:0.76830316;stroke-linecap:butt;stroke-linejoin:miter;stroke-miterlimit:4;stroke-dasharray:none;stroke-opacity:1" />
      <path
         inkscape:connector-curvature="0"
         id="path933"
         d="m 108.83352,280.00288 0.63783,-1.03943 -0.059,-1.06306 c 0,0 0.88588,-0.81501 0.99218,-0.83864 0.10631,-0.0236 1.48828,-0.5079 1.48828,-0.5079 l 1.16937,0.0118 1.02762,0.28348 0.86226,0.61421 0.9095,1.15755 0.38979,0.87407"
         style="fill:#008e20;fill-opacity:0;stroke:#000000;stroke-width:0.76830316;stroke-linecap:butt;stroke-linejoin:miter;stroke-miterlimit:4;stroke-dasharray:none;stroke-opacity:1" />
      <path
         inkscape:connector-curvature="0"
         id="path935"
         d="m 113.92439,276.37667 c 0,0 -0.36617,-0.77957 -0.36617,-0.83863 0,-0.0591 -0.21261,-0.94494 -0.21261,-0.99219 0,-0.0472 -0.18899,-1.22842 -0.18899,-1.22842 l 0.0236,-1.01581 0.11812,-1.0985 0.37797,-0.93313 0.42522,-0.59058 0.55516,0.11811 0.63783,0.77958 c 0,0 0.51972,0.64965 0.51972,0.69689 0,0.0472 0,1.54734 0,1.54734 l -0.2008,1.34654 0.0354,0.61421"
         style="fill:#008e20;fill-opacity:0;stroke:#000000;stroke-width:0.76830316;stroke-linecap:butt;stroke-linejoin:miter;stroke-miterlimit:4;stroke-dasharray:none;stroke-opacity:1" />
      <path
         inkscape:connector-curvature="0"
         id="path937"
         d="m 116.49935,269.62035 -0.23624,-1.32292 -0.28348,-1.14574 -0.15355,-1.08668 0.11812,-1.07487 0.25985,-0.54334 0.25986,-0.35435 0.0827,-0.41342 0.51972,0.88589 c 0,0 0.22442,0.69689 0.18899,0.74414 -0.0354,0.0472 0.14174,1.09849 0.14174,1.09849"
         style="fill:#008e20;fill-opacity:0;stroke:#000000;stroke-width:0.76830316;stroke-linecap:butt;stroke-linejoin:miter;stroke-miterlimit:4;stroke-dasharray:none;stroke-opacity:1" />
      <ellipse
         ry="0.72113484"
         rx="0.7211349"
         cy="281.38904"
         cx="111.20132"
         id="path943"
         style="fill:#008e20;fill-opacity:0;stroke:#000000;stroke-width:0.76830316;stroke-miterlimit:4;stroke-dasharray:none;stroke-opacity:1" />
    </g>
    <path
       style="fill:#008e20;fill-opacity:0;stroke:#000000;stroke-width:0.24507792;stroke-linecap:butt;stroke-linejoin:miter;stroke-miterlimit:4;stroke-dasharray:none;stroke-opacity:1"
       d="m 154.99921,288.11522 -0.16564,0.13489"
       id="path956"
       inkscape:connector-curvature="0" />
    <path
       style="fill:#008e20;fill-opacity:0;stroke:#000000;stroke-width:0.24507792;stroke-linecap:butt;stroke-linejoin:miter;stroke-miterlimit:4;stroke-dasharray:none;stroke-opacity:1"
       d="m 161.5485,275.74663 0.68365,0.35686"
       id="path958"
       inkscape:connector-curvature="0" />
    <path
       style="fill:#008e20;fill-opacity:0;stroke:#000000;stroke-width:0.24507792;stroke-linecap:butt;stroke-linejoin:miter;stroke-miterlimit:4;stroke-dasharray:none;stroke-opacity:1"
       d="m 159.49331,283.71167 1.50609,-1.91859"
       id="path960"
       inkscape:connector-curvature="0" />
    <path
       style="fill:#008e20;fill-opacity:0;stroke:#000000;stroke-width:0.03274891;stroke-miterlimit:4;stroke-dasharray:none;stroke-opacity:1"
       d="m 154.04787,285.80008 c -1.25703,-3.36379 -1.26928,-3.41125 -1.61688,-6.26289 l -0.28931,-2.3734 0.0956,-1.28218 c 0.0526,-0.7052 0.19651,-2.25201 0.31981,-3.43734 0.30953,-2.97577 0.69539,-4.99371 1.50791,-7.88601 0.31222,-1.11139 0.64034,-2.20397 0.72915,-2.42797 0.24142,-0.60883 0.69299,-2.60464 0.87653,-3.8739 0.15912,-1.1005 0.16055,-1.13042 0.0798,-1.67382 l -0.0822,-0.5533 0.20937,-0.37221 c 0.18087,-0.32155 0.25373,-0.39639 0.53528,-0.54988 0.30942,-0.16868 0.34664,-0.17602 0.73543,-0.14497 0.49881,0.0398 1.17241,0.20227 1.51726,0.36587 0.18462,0.0876 0.29138,0.18603 0.38432,0.35438 l 0.12868,0.2331 -0.12533,1.19701 -0.12534,1.19702 0.20697,1.51576 c 0.11382,0.83367 0.24142,1.66956 0.28353,1.85753 0.0421,0.18796 0.23632,0.67607 0.43155,1.08467 0.29686,0.62131 0.4055,0.936 0.66368,1.92252 0.16979,0.64878 0.35144,1.22871 0.40365,1.28873 0.0836,0.096 0.76819,2.88051 0.76032,3.09227 -0.002,0.0397 -0.0901,-0.098 -0.19694,-0.3061 -0.22071,-0.42987 -0.25679,-0.41516 -0.3159,0.12881 -0.0209,0.19284 -0.0886,0.44946 -0.15023,0.57027 -0.4668,0.9143 -0.48696,2.23624 -0.0613,4.01687 0.0753,0.31509 0.20641,0.95283 0.2913,1.41719 0.0849,0.46437 0.17942,0.85265 0.21007,0.86286 0.0306,0.0102 0.0443,0.0483 0.0304,0.0846 -0.0149,0.0389 0.12012,0.13774 0.3282,0.24027 l 0.35357,0.17422 0.0175,2.6343 c 0.0149,2.24774 -6.2e-4,2.92652 -0.10542,4.62577 -0.10814,1.75163 -0.22281,2.80737 -0.33954,3.12588 -0.0266,0.0728 -0.0619,0.0239 -0.13778,-0.19096 -0.0561,-0.15879 -0.31315,-0.59806 -0.57127,-0.97616 -0.6333,-0.92763 -1.0721,-1.30941 -1.75844,-1.52996 -0.40569,-0.13037 -0.57839,-0.156 -1.05113,-0.156 h -0.56568 l -0.74829,0.35957 -0.7483,0.35957 -0.43329,0.52278 c -0.47793,0.57664 -0.46037,0.51562 -0.38052,1.32245 l 0.0459,0.46377 -0.2467,0.57288 c -0.13569,0.3151 -0.25299,0.57995 -0.26067,0.58856 -0.008,0.009 -0.38361,-0.97348 -0.83538,-2.18244 z m 6.32675,-2.90739 0.73201,-0.92754 0.0265,-0.90026 c 0.0146,-0.49513 0.0246,-1.46776 0.0223,-2.16139 l -0.004,-1.26114 -0.19764,-0.32113 c -0.1087,-0.17662 -0.37813,-0.5777 -0.59873,-0.89129 -0.38266,-0.54396 -0.41349,-0.57338 -0.6708,-0.64004 -0.14833,-0.0384 -0.3001,-0.0703 -0.33726,-0.0709 -0.10247,-0.002 -0.45398,0.72542 -0.63262,1.30841 -0.15172,0.49512 -0.15999,0.57643 -0.18485,1.81591 -0.028,1.39853 0.0244,1.91947 0.34451,3.42194 0.14887,0.69879 0.45377,1.54047 0.54547,1.50577 0.0328,-0.0124 0.0935,-0.002 0.13493,0.024 0.0414,0.0256 0.0783,0.0417 0.0818,0.0359 0.004,-0.006 0.33588,-0.42807 0.73849,-0.93821 z"
       id="path4755"
       inkscape:connector-curvature="0" />
    <path
       style="fill:#008e20;fill-opacity:0;stroke:#000000;stroke-width:0.02315697;stroke-miterlimit:4;stroke-dasharray:none;stroke-opacity:1"
       d="m 161.09239,280.87749 c 0.0228,-0.97453 0.077,-1.16523 0.0822,-0.28936 0.003,0.44626 -0.009,0.69277 -0.0312,0.65779 -0.0254,-0.0401 -0.0398,-0.007 -0.0509,0.11574 -0.009,0.0944 -0.009,-0.12345 -1.2e-4,-0.48417 z"
       id="path4793"
       inkscape:connector-curvature="0" />
    <path
       style="fill:#28a745;fill-opacity:1;stroke:#000000;stroke-width:0.02315697;stroke-miterlimit:4;stroke-dasharray:none;stroke-opacity:1"
       d="m 159.45016,283.2469 c -0.20919,-0.49234 -0.34899,-1.09264 -0.54424,-2.3369 -0.13535,-0.86251 -0.16948,-1.58621 -0.11875,-2.51795 0.0316,-0.58105 0.0554,-0.74066 0.17795,-1.19521 0.11484,-0.42594 0.30237,-0.88096 0.45898,-1.11362 0.004,-0.006 0.0921,0.01 0.19611,0.0337 0.21213,0.0494 0.1704,-3.1e-4 0.86896,1.03752 l 0.3765,0.55941 0.0367,0.88361 c 0.0284,0.68537 0.0246,1.02726 -0.0173,1.52393 -0.0297,0.35217 -0.0495,0.85758 -0.0441,1.12312 l 0.01,0.48281 -0.63306,0.80964 c -0.34818,0.4453 -0.64705,0.82552 -0.66415,0.84493 -0.0171,0.0195 -0.0635,-0.0411 -0.10346,-0.13503 z"
       id="path4795"
       inkscape:connector-curvature="0" />
    <path
       style="fill:#28a745;fill-opacity:1;stroke:#000000;stroke-width:0.02315697;stroke-miterlimit:4;stroke-dasharray:none;stroke-opacity:1"
       d="m 151.90413,276.24784 c -0.0139,-0.0424 -0.29627,-1.23168 -0.62749,-2.64276 -0.45443,-1.93603 -0.59242,-2.58179 -0.56233,-2.63157 0.0219,-0.0363 0.35447,-1.1474 0.73897,-2.46915 0.3845,-1.32174 1.00306,-3.39276 1.37459,-4.60226 l 0.67549,-2.19908 0.54358,-1.10926 c 0.29896,-0.6101 0.54912,-1.10372 0.5559,-1.09695 0.007,0.007 0.0298,0.4835 0.0511,1.05938 l 0.0388,1.04705 -0.15584,0.39711 c -0.0857,0.21842 -0.40791,1.29122 -0.716,2.38401 -0.52955,1.87835 -0.57999,2.08805 -0.92325,3.83875 l -0.3631,1.85186 -0.25221,2.41128 c -0.13871,1.3262 -0.27488,2.73246 -0.3026,3.12501 -0.0277,0.39256 -0.0618,0.67901 -0.0757,0.63658 z"
       id="path4797"
       inkscape:connector-curvature="0" />
    <path
       style="fill:#28a745;fill-opacity:1;stroke:#000000;stroke-width:0.02315697;stroke-miterlimit:4;stroke-dasharray:none;stroke-opacity:1"
       d="m 160.66968,264.18592 c -0.20193,-0.76377 -0.25024,-0.89619 -0.56619,-1.55179 -0.18998,-0.39422 -0.35697,-0.76933 -0.37109,-0.83358 -0.0221,-0.10081 -0.0147,-0.11682 0.0546,-0.11682 0.0973,0 0.10099,-0.0867 0.0381,-0.90228 l -0.0422,-0.54707 0.37665,-1.07257 c 0.22218,-0.63272 0.3881,-1.05146 0.40458,-1.02109 0.0154,0.0283 0.11645,0.3566 0.22463,0.72952 l 0.1967,0.67804 0.0901,1.13524 0.0901,1.13524 -0.12507,1.44677 c -0.0688,0.79572 -0.13071,1.51621 -0.13761,1.60108 -0.0101,0.12426 -0.0555,-0.008 -0.2333,-0.68069 z"
       id="path4799"
       inkscape:connector-curvature="0" />
    <path
       style="fill:#28a745;fill-opacity:1;stroke:#000000;stroke-width:0.02315697;stroke-miterlimit:4;stroke-dasharray:none;stroke-opacity:1"
       d="m 161.88465,275.74346 c -0.13273,-0.0752 -0.24137,-0.14869 -0.24144,-0.16337 -6.2e-4,-0.10893 -0.2916,-1.60787 -0.40604,-2.09075 -0.0779,-0.3289 -0.18475,-0.87578 -0.23734,-1.21529 -0.0837,-0.54029 -0.0926,-0.69187 -0.0711,-1.21528 0.0272,-0.66315 0.10137,-0.97082 0.35817,-1.48441 l 0.13456,-0.26912 0.1635,0.32699 c 0.19968,0.39938 0.2978,0.7894 0.40619,1.61452 0.0456,0.34741 0.0928,0.65724 0.10482,0.68852 0.0152,0.0396 0.0552,0.0502 0.1321,0.0348 l 0.11028,-0.022 -0.003,0.51023 c -0.006,0.97083 -0.14077,3.42381 -0.1886,3.42245 -0.0115,-3.1e-4 -0.12941,-0.0621 -0.26212,-0.13727 z"
       id="path4801"
       inkscape:connector-curvature="0" />
    <path
       style="fill:#28a745;fill-opacity:1;stroke:none;stroke-width:0.02315697;stroke-miterlimit:4;stroke-dasharray:none;stroke-opacity:1"
       d="m 155.5648,255.43103 c -0.13556,-0.78138 -0.3635,-2.56489 -0.52208,-4.08488 l -0.195,-1.86918 0.25579,-1.48731 c 0.14069,-0.81803 0.2613,-1.49347 0.26803,-1.50099 0.007,-0.008 0.0611,0.002 0.12082,0.0217 0.09,0.0293 0.12243,0.0779 0.18937,0.28373 0.0807,0.24803 0.0811,0.24848 0.27695,0.30141 0.18629,0.0503 0.20092,0.0639 0.29039,0.27007 0.32345,0.74506 1.51052,3.3861 1.53368,3.41218 0.0154,0.0173 0.18887,-0.18954 0.38548,-0.45974 l 0.35746,-0.49128 0.55614,-1.69112 c 0.30587,-0.93011 0.56313,-1.69112 0.57168,-1.69112 0.009,0 0.10677,0.1509 0.21826,0.33533 l 0.2027,0.33533 0.12112,0.82435 0.12113,0.82434 -0.16335,2.16789 -0.16334,2.16788 -0.33344,1.21388 c -0.18339,0.66763 -0.3385,1.21893 -0.34469,1.22512 -0.006,0.006 -0.0597,-0.0776 -0.11882,-0.18623 -0.0968,-0.17771 -0.13702,-0.21099 -0.40199,-0.33257 -0.42002,-0.19273 -0.91129,-0.31701 -1.5044,-0.38056 l -0.515,-0.0552 -0.35371,0.15678 c -0.47697,0.21141 -0.50978,0.23653 -0.64154,0.49112 -0.17757,0.34314 -0.18538,0.35048 -0.21164,0.19909 z"
       id="path4803"
       inkscape:connector-curvature="0" />
    <path
       style="fill:#28a745;fill-opacity:1;stroke:#000000;stroke-width:0.02315697;stroke-miterlimit:4;stroke-dasharray:none;stroke-opacity:1"
       d="m 157.0176,290.19371 c -0.25572,-0.15579 -0.34734,-0.56391 -0.1965,-0.87527 0.24766,-0.51121 0.88407,-0.26504 0.88407,0.34196 0,0.31478 -0.22791,0.61166 -0.46927,0.61127 -0.0498,-8e-5 -0.14805,-0.0352 -0.2183,-0.078 z"
       id="path4805"
       inkscape:connector-curvature="0" />
    <ellipse
       style="fill:#28a745;fill-opacity:1;stroke:#000000;stroke-width:0.5;stroke-miterlimit:4;stroke-dasharray:none;stroke-opacity:1"
       id="path4830"
       cx="157.83478"
       cy="240.84097"
       rx="2.368773"
       ry="2.3669889" />
    <rect
       style="fill:none;fill-opacity:1;stroke:#000000;stroke-width:4.11871338;stroke-linejoin:round;stroke-miterlimit:4;stroke-dasharray:none;stroke-opacity:1"
       id="rect4888"
       width="247.55563"
       height="205.61151"
       x="-23.703253"
       y="592.50903"
       ry="0" />
    <text
       xml:space="preserve"
       style="font-style:normal;font-weight:normal;font-size:22.79386139px;line-height:1.25;font-family:sans-serif;letter-spacing:0px;word-spacing:0px;fill:#000000;fill-opacity:1;stroke:none;stroke-width:0.56984657"
       x="266.8075"
       y="284.84921"
       id="text5059"
       transform="scale(1.0795668,0.92629747)"><tspan
         sodipodi:role="line"
         id="tspan5057"
         x="266.8075"
         y="284.84921"
         style="font-style:normal;font-variant:normal;font-weight:normal;font-stretch:normal;font-size:109.41054535px;font-family:Unifont;-inkscape-font-specification:Unifont;stroke-width:0.56984657">D<tspan
   style="font-weight:normal;fill:#28a745;fill-opacity:1;stroke-width:0.56984657"
   id="tspan5223">E</tspan>V</tspan></text>
    <text
       xml:space="preserve"
       style="font-style:normal;font-weight:normal;font-size:14.77180099px;line-height:1.25;font-family:sans-serif;letter-spacing:0px;word-spacing:0px;fill:#000000;fill-opacity:1;stroke:none;stroke-width:0.36929503"
       x="2.2157702"
       y="186.63779"
       id="text5231"
       transform="scale(0.71645515,1.3957608)"><tspan
         sodipodi:role="line"
         id="tspan5229"
         x="2.2157702"
         y="186.63779"
         style="font-style:normal;font-variant:normal;font-weight:bold;font-stretch:normal;font-size:70.90464783px;font-family:'DejaVu Serif';-inkscape-font-specification:'DejaVu Serif';fill:#28a745;fill-opacity:1;stroke-width:0.36929503">{</tspan></text>
    <text
       transform="scale(-0.71645515,1.3957608)"
       id="text5253"
       y="186.63779"
       x="-705.41125"
       style="font-style:normal;font-weight:normal;font-size:14.77180099px;line-height:1.25;font-family:sans-serif;letter-spacing:0px;word-spacing:0px;fill:#000000;fill-opacity:1;stroke:none;stroke-width:0.36929503"
       xml:space="preserve"><tspan
         style="font-style:normal;font-variant:normal;font-weight:bold;font-stretch:normal;font-size:70.90464783px;font-family:'DejaVu Serif';-inkscape-font-specification:'DejaVu Serif';fill:#28a745;fill-opacity:1;stroke-width:0.36929503"
         y="186.63779"
         x="-705.41125"
         id="tspan5251"
         sodipodi:role="line">{</tspan></text>
  </g>
</svg>
